<svg xmlns="http://www.w3.org/2000/svg" viewBox="0 0 250 250">
  <path fill="#5464ec" d="M63.25 4.95c-6.757.092-16.852.808-19.583 1.39-6.319 1.346-12.708 3.906-16.889 6.767-.717.491-1.343.893-1.39.893-.473 0-5.693 4.611-7.659 6.766-6.655 7.291-10.9 16.923-11.887 26.971-.783 7.976-.759 5.477-.759 77.68 0 73.188-.034 69.703.761 77.416.68 6.593 3.797 15.366 7.233 20.354.508.737.923 1.378.923 1.425 0 .473 4.611 5.693 6.766 7.659 7.29 6.654 16.92 10.899 26.971 11.887 7.931.781 5.696.759 77.43.759 71.694 0 69.657.02 77.265-.754 7.255-.738 15.413-3.591 20.79-7.27.717-.491 1.343-.893 1.39-.893.473 0 5.693-4.611 7.659-6.766 6.398-7.009 10.843-16.837 11.811-26.11.853-8.172.808-4.507.908-72.791.107-72.973.101-73.585-.829-82.765-.734-7.248-3.587-15.411-7.268-20.79-.491-.717-.893-1.343-.893-1.39 0-.473-4.611-5.693-6.766-7.659-7.289-6.653-16.911-10.894-26.971-11.889-7.461-.738-6.98-.729-44.346-.786l-64.084-.096c-15.446-.023-29.208-.026-30.583-.008"/>
  <path fill="#fbfbfb" d="M185.648 70.414c-11.276-5.157-23.252-8.916-35.752-11.014-1.574 2.71-3.323 6.382-4.547 9.266-13.296-1.923-26.496-1.923-39.607 0-1.224-2.884-3.06-6.556-4.547-9.266a140.651 140.651 0 0 0-35.76 11.014c-22.642 33.393-28.76 65.999-25.701 98.168 15.036 10.927 29.547 17.571 43.804 21.942a106.574 106.574 0 0 0 9.354-15.124 91.72 91.72 0 0 1-14.774-7.08 55.969 55.969 0 0 0 3.585-2.797c28.497 13.025 59.364 13.025 87.51 0 1.225.961 2.361 1.923 3.585 2.797a91.739 91.739 0 0 1-14.773 7.08 106.62 106.62 0 0 0 9.353 15.124c14.25-4.371 28.848-11.015 43.805-21.942 3.758-37.239-5.954-69.582-25.535-98.168Zm-88.823 78.324c-8.567 0-15.56-7.779-15.56-17.307 0-9.528 6.819-17.309 15.56-17.309 8.654 0 15.735 7.78 15.56 17.309 0 9.528-6.906 17.308-15.56 17.308Zm57.442 0c-8.568 0-15.57-7.779-15.57-17.307 0-9.528 6.828-17.309 15.57-17.309 8.653 0 15.734 7.78 15.559 17.309 0 9.528-6.818 17.308-15.56 17.308Z"/>
</svg>
