<svg xmlns="http://www.w3.org/2000/svg" viewBox="0 0 400 500">
  <path fill="#fbab04" d="M194.522 292.77c-.398.446-1.094 1.863-1.546 3.15-.452 1.287-1.138 3.047-1.526 3.911-.388.864-.734 1.998-.768 2.52l-.062.949h14.04l.118-.83c.065-.456-.039-1.023-.23-1.26-.19-.236-.78-1.564-1.312-2.95-2.452-6.407-2.357-6.3-5.56-6.3-2.066 0-2.539.122-3.154.81m-92.462 7.641c-26.658 9.525-47.907 29.578-57.227 54.009-.529 1.386-1.18 3.087-1.447 3.78-2.306 5.983-4.277 15.143-5.04 23.431-.815 8.87-.806 71.54.012 74.68.993 3.812 3.545 6.772 7.13 8.27 1.47.615 40.745.85 41.347.248.194-.194.363-5.94.401-13.613.061-12.682.097-13.333.804-14.535 2.121-3.61 6.25-3.864 8.864-.543l.836 1.063.106 13.688c.059 7.529.233 13.814.388 13.97.195.194 45.265.413 55.074.265.359-.005 1.55-4.125 3.125-10.804a892.467 892.467 0 0 1 3.232-12.96c.655-2.494 1.867-7.362 3.182-12.78a531.67 531.67 0 0 1 2.208-8.82 685.66 685.66 0 0 0 2.005-8.1c.816-3.366 1.71-6.93 1.986-7.92.632-2.266 2.602-10.158 3.19-12.78.244-1.089 2.45-9.976 4.902-19.748 4.894-19.501 4.806-18.772 2.263-18.772-3.725 0-8.629-4.814-10.248-10.06-.552-1.792-.434-1.697-11.473-9.193a2052.179 2052.179 0 0 1-8.46-5.768c-3.417-2.356-12.716-8.708-28.194-19.259a1476.478 1476.478 0 0 1-10.612-7.29c-3.476-2.434-2.913-2.403-8.354-.459m178.71 3.402a76835.988 76835.988 0 0 1-12.75 8.692 12946.667 12946.667 0 0 0-17.1 11.668 7120.507 7120.507 0 0 1-12.96 8.815c-11.349 7.707-11.88 8.115-11.88 9.114 0 3.818-5.596 9.369-10.58 10.493-1.489.335-1.827.549-1.773 1.12.07.756.828 4.06 1.5 6.555l.825 3.06c.228.842.614 2.421.86 3.51.468 2.078 2.338 9.581 3.23 12.96.943 3.571 1.692 6.633 2.018 8.248.176.874.552 2.413.837 3.42.936 3.321 2.654 10.116 3.102 12.272.166.792.733 3.06 1.264 5.04.53 1.98 1.1 4.248 1.265 5.04.166.792 1.377 5.652 2.692 10.8s2.53 10.008 2.7 10.8c1.345 6.234 7.255 28.849 7.639 29.234.66.66 54.431.712 55.225.053.416-.346.496-2.715.458-13.686-.042-12.409 0-13.342.636-14.433 2.047-3.504 6.713-3.687 8.975-.352.617.91.673 2.013.746 14.591.043 7.484.175 13.761.292 13.95.13.21 8 .341 20.44.34l20.229-.004 1.823-.849c3.47-1.615 5.719-4.198 6.786-7.794.823-2.77.854-66.668.036-75.23-.787-8.247-2.655-16.764-5.055-23.04-1.776-4.644-2.442-6.318-2.712-6.815-.169-.31-1.02-2.023-1.892-3.805-10.366-21.18-29.42-38.084-52.446-46.53-2.245-.824-6.617-2.25-6.895-2.25-.102 0-3.492 2.255-7.535 5.013"/>
  <path fill="#3c3c3c" d="M168.327 6.142c-.553.557-1.196.698-3.176.698-1.726 0-2.647.165-3.022.54-.297.297-1.177.56-1.955.585-.778.025-1.536.083-1.684.13a36.927 36.927 0 0 1-1.447.361c-.648.153-1.266.418-1.372.59-.106.173-.832.314-1.613.314s-1.418.155-1.418.344c0 .352-2.201.895-3.33.822-.347-.023-.63.103-.63.28 0 .177-.569.428-1.264.558-.695.13-1.352.381-1.461.557-.11.175-.493.319-.853.319s-.855.243-1.102.54c-.247.297-.995.54-1.664.54-.78 0-1.184.161-1.126.45.054.27-.38.495-1.08.563-.643.062-1.17.264-1.17.45 0 .185-.324.337-.72.337-.396 0-.72.208-.72.462 0 .253-.416.496-.923.537-.509.042-1.178.33-1.487.64-.31.31-.773.481-1.03.383-.257-.099-.67.065-.918.363-.565.681-2.478 1.69-2.493 1.314-.006-.153-.176.005-.378.351-.201.347-.607.63-.902.63-.67 0-2.251 1.007-3.25 2.07-.419.446-1.034.81-1.367.81-.333 0-.972.394-1.419.877-.446.482-1.04.928-1.32.99-.278.062-.915.477-1.416.923s-1.082.81-1.291.81c-.21 0-1.302.891-2.427 1.98-1.124 1.089-2.126 1.98-2.225 1.98-.1 0-.765.567-1.478 1.26-.714.693-1.456 1.26-1.648 1.26-.193 0-.25.162-.128.36.122.198.077.36-.103.36s-.796.405-1.371.9c-.575.494-.949.9-.83.9.118 0-1.372 1.629-3.313 3.62-1.94 1.99-3.627 3.935-3.75 4.32-.122.385-.38.7-.574.7-.195 0-.554.476-.799 1.058-.244.584-1.047 1.71-1.783 2.505-.735.795-1.337 1.615-1.337 1.822 0 .206-.16.375-.353.375-.194 0-.455.405-.58.9s-.354.9-.511.9c-.158 0-.816 1.053-1.463 2.34-.647 1.287-1.31 2.34-1.474 2.34-.165 0-.299.285-.299.634 0 .348-.405 1.07-.9 1.604s-.9 1.383-.9 1.887c0 .503-.162.915-.36.915-.198 0-.36.385-.36.856 0 .47-.251 1.065-.558 1.318-.307.255-.873 1.156-1.26 2.003-.384.847-.862 1.64-1.061 1.762-.199.123-.361.606-.361 1.073 0 .467-.27 1.39-.601 2.05-1.095 2.184-1.199 2.444-1.199 2.994 0 .3-.162.544-.36.544-.198 0-.36.734-.36 1.632 0 1.01-.18 1.699-.47 1.811-.262.1-.51.852-.56 1.69-.048.83-.222 1.594-.384 1.698-.163.104-.41.716-.55 1.359-.14.644-.402 1.17-.585 1.17-.182 0-.331.572-.331 1.273 0 .7-.229 1.631-.508 2.07-.28.438-.504 1.62-.5 2.625.006 1.004-.25 2.334-.57 2.952-.33.634-.582 1.985-.582 3.101 0 1.087-.162 2.077-.36 2.199-.198.122-.36.82-.362 1.552-.002.73-.248 1.799-.548 2.374-.417.8-.527 2.121-.47 5.641.049 2.98-.067 4.768-.33 5.084-.526.634-.587 16.902-.065 17.224.513.318.004 1.425-.654 1.425-.304 0-.998.446-1.542.99-1.407 1.41-3.334 2.97-3.666 2.97-.156 0-.283.243-.283.54 0 .297-.253.54-.562.54-.308 0-.46.162-.338.36.122.198-.03.36-.338.36-.31 0-.562.132-.562.294 0 .162-.571.932-1.27 1.71-.697.779-1.363 1.78-1.478 2.223-.115.445-.353.719-.53.61-.177-.11-.322-.017-.322.208s-.243.65-.54.946c-.297.297-.54.833-.54 1.191 0 .357-.243.851-.54 1.098-.297.247-.54.76-.54 1.143s-.405 1.292-.9 2.02c-.498.732-.9 1.84-.9 2.48 0 .635-.162 1.255-.36 1.377-.198.122-.36 1.172-.36 2.332 0 2.31-.26 3.352-.758 3.045-.177-.11-.322.63-.322 1.643s-.121 1.768-.27 1.676c-.148-.092-.27 4.677-.27 10.598s.122 10.766.27 10.766c.149 0 .275.931.282 2.07.006 1.246.221 2.348.54 2.768.343.455.528 1.55.528 3.13 0 1.336.162 2.53.36 2.652.198.122.36.902.362 1.732 0 .892.368 2.23.9 3.28.494.973.898 2.204.898 2.734s.308 1.318.683 1.752c.375.433.606 1.081.512 1.44-.094.36.044.882.308 1.158.264.277.939 1.476 1.5 2.664.561 1.188 1.167 2.403 1.345 2.7.178.297.653 1.147 1.056 1.89.402.742.85 1.35.995 1.35.146 0 .466.445.711.99.622 1.379 2.823 4.076 3.101 3.799.126-.126.229-.035.229.202 0 .599 5.363 5.72 6.544 6.25.53.238.886.56.79.715-.098.156.081.284.396.284s.666.243.78.54c.114.297.475.54.802.54s1.032.405 1.566.9 1.21.9 1.505.9c.294 0 .635.162.757.36.122.198.663.36 1.202.36s1.255.324 1.594.72c.34.396.983.72 1.43.72.448.002 1.375.345 2.06.762.712.434 2.14.84 3.33.949 1.146.104 2.084.317 2.084.473 0 .157 3.402.3 7.56.322 4.272.02 7.56-.105 7.56-.288 0-.179.764-.41 1.698-.516.935-.105 1.758-.37 1.83-.587.164-.49 1.872-.528 1.872-.042 0 .194.405.455.9.58s.9.37.9.546c0 .177.366.321.814.321.447 0 1.25.405 1.784.9s1.302.9 1.707.9c.404 0 .735.162.735.36 0 .198.374.36.832.36.456 0 1.144.238 1.53.528.384.291.941.54 1.238.553.844.037 3.279 1.28 3.018 1.54-.129.13.439.343 1.262.474.823.131 1.583.38 1.689.553.107.172.74.312 1.407.312s1.456.243 1.753.54c.297.297.866.54 1.264.54.399 0 .818.152.933.337.115.186.882.328 1.704.317.912-.012 1.647.184 1.883.502.257.347 1.175.551 2.719.605 1.283.045 2.424.23 2.536.412.243.394 1.396.627 3.592.728l1.62.073-1.26.264c-1.01.212-.778.266 1.175.274 1.34.005 2.637.174 2.88.376.245.202 2.274.421 4.509.489 2.713.082 4.154.27 4.337.567.191.31 2.284.515 6.989.685l6.716.243 1.523 1.744c.838.96 1.737 1.744 1.997 1.744s.474.162.474.36c0 .198.248.36.552.36.302 0 .644.243.758.54.114.297.585.54 1.047.54.463 0 .94.162 1.063.36.122.198.587.36 1.032.36s1.124.238 1.51.528c.384.291 1.063.534 1.508.54.446.007.81.174.81.372 0 .224 2.047.36 5.422.36 3.521 0 5.343-.126 5.198-.36-.123-.2.149-.365.608-.372.458-.006 1.146-.249 1.53-.54.386-.29 1.064-.528 1.51-.528.445 0 .91-.162 1.032-.36.122-.198.579-.36 1.015-.36.436 0 1.229-.405 1.763-.9.534-.495 1.119-.9 1.3-.9.386 0 3.302-3.092 3.302-3.502 0-.24.559-.984 2.153-2.873 1.148-1.36.248-9.2-1.173-10.217-.163-.117-.321-.551-.353-.965-.031-.414-.185-.673-.342-.577-.156.097-.285-.076-.285-.384a.563.563 0 0 0-.562-.562c-.308 0-.46-.162-.338-.36.122-.198.04-.36-.182-.36s-.819-.493-1.326-1.095c-.507-.602-1.008-1.008-1.115-.902-.106.105-.419-.13-.695-.526-.277-.394-.762-.717-1.079-.717s-1.125-.42-1.797-.932c-.671-.513-1.44-.847-1.709-.745-.268.104-.787-.04-1.152-.317-.95-.719-14.045-.73-14.992-.013-.356.27-.963.408-1.35.307-.387-.102-.703-.004-.703.218s-.248.402-.552.402c-.302 0-.644.243-.758.54-.114.297-.585.54-1.048.54s-1.067.323-1.344.717c-.276.395-.586.635-.687.533-.102-.102-.846.532-1.654 1.408-.807.875-1.585 1.486-1.73 1.357-.144-.13-.165-.063-.045.147s-.192.858-.692 1.44c-.913 1.063-6.687 1.512-7.313.567-.108-.163-.926-.333-1.817-.378-2.886-.144-4.217-.285-4.542-.484-.175-.106-1.282-.205-2.46-.217-2.527-.03-4.235-.353-3.986-.756.098-.16-1.186-.312-2.854-.34-1.871-.032-3.42-.255-4.045-.581-.557-.29-1.702-.53-2.543-.531-.842-.001-1.53-.13-1.53-.287 0-.359-3.472-1.448-4.673-1.468-.491-.008-1.069-.255-1.283-.548-.216-.296-.907-.52-1.541-.502-1.143.033-3.663-1.067-3.663-1.599 0-.153-.53-.278-1.178-.278-.996 0-1.286-.208-1.881-1.35a29.925 29.925 0 0 0-1.432-2.43c-1.283-1.897-1.63-2.498-2.03-3.51-.214-.544-.536-.99-.714-.99-.18 0-.325-.307-.325-.682s-.402-1.064-.894-1.53-.896-1.147-.9-1.512c-.003-.366-.228-1.095-.5-1.62-1.464-2.84-2.026-4.15-2.026-4.726 0-.353-.243-.843-.54-1.09-.297-.247-.54-.963-.54-1.592 0-.63-.173-1.317-.383-1.527-.212-.212-.471-.933-.576-1.602-.106-.67-.297-1.3-.426-1.399-.623-.477-1.495-2.574-1.495-3.591 0-.627-.243-1.383-.54-1.68-.302-.303-.545-1.202-.552-2.045-.006-.827-.227-1.787-.49-2.134s-.407-1.076-.32-1.62c.124-.774.075-.872-.225-.45-.296.419-.384.217-.39-.9-.004-.792-.244-1.894-.534-2.449-.289-.554-.562-2.093-.606-3.42-.043-1.326-.25-2.526-.461-2.667-.21-.142-.488-1.519-.619-3.06-.357-4.228-.713-6.35-1.16-6.909-.282-.354-.41-4.94-.428-15.21l-.025-14.705 10.285-.076c5.656-.042 10.812-.063 11.455-.05.643.016 1.17-.112 1.17-.283s2.155-.311 4.788-.311c3.165 0 4.93-.142 5.207-.42.232-.23 1.026-.48 1.767-.557.74-.076 1.528-.29 1.75-.473.222-.184 1.606-.354 3.076-.378 1.715-.027 2.982-.24 3.54-.593.506-.321 1.602-.534 2.635-.51.973.021 2.343-.201 3.046-.495.704-.294 1.948-.55 2.765-.57 1.276-.03 1.36-.076.586-.324-.827-.265-.797-.292.36-.327.693-.02 1.724-.28 2.291-.575.567-.296 1.689-.538 2.492-.538.803 0 1.72-.236 2.039-.523.318-.288 1.193-.565 1.943-.615.752-.05 1.445-.221 1.542-.378.096-.156.477-.284.844-.284.368 0 .725-.166.792-.368.068-.203.77-.47 1.56-.596.79-.125 1.543-.39 1.673-.588.13-.198.745-.345 1.369-.327.651.018 1.68-.34 2.424-.844.71-.483 1.668-.877 2.129-.877.46 0 1-.305 1.2-.678.198-.372.853-.777 1.452-.9l2.17-.442c.594-.122 1.08-.365 1.08-.54 0-.176.223-.32.496-.32s.697-.243.944-.54c.247-.297.814-.54 1.26-.54.446 0 1.013-.243 1.26-.54.247-.297.639-.54.872-.54.628 0 2.362-.858 2.365-1.17.002-.149.258-.27.57-.27.31 0 .807-.243 1.104-.54.297-.297.853-.54 1.235-.54.382 0 .694-.16.694-.353 0-.194.444-.464.986-.601.542-.136 1.283-.625 1.646-1.086.363-.462 1.036-.84 1.495-.84.46 0 .93-.243 1.044-.54.113-.297.545-.54.959-.54.414 0 .652-.162.53-.36-.122-.198.037-.36.354-.36.539 0 .9-.226 2.153-1.35.276-.248.748-.45 1.05-.45.3 0 .677-.203.835-.45.42-.655 3.24-2.79 3.687-2.79.21 0 .381-.162.381-.36 0-.198.184-.36.409-.36s.783-.405 1.242-.9 1.085-.9 1.392-.9a.55.55 0 0 0 .557-.54c0-.297.243-.54.54-.54.297 0 .54-.162.54-.36 0-.198.185-.36.411-.36s.875-.485 1.442-1.078c.566-.593 1.121-1.071 1.232-1.062.11.01.528-.396.924-.901.398-.506.964-.919 1.259-.919.294 0 .434-.162.312-.36-.122-.198-.043-.36.175-.36.22 0 .774-.405 1.233-.9.46-.495 1.045-.9 1.304-.9.257 0 .362-.106.233-.235-.13-.13.223-.575.784-.99 1.86-1.379 3.651-3.068 3.651-3.444a.378.378 0 0 1 .382-.371c.21 0 .28-.162.158-.36-.122-.198-.028-.36.209-.36s.641-.284.898-.63c.428-.579.577-.512 1.84.829 3.235 3.435 5.443 5.921 5.26 5.921-.11 0 .43.702 1.197 1.56 1.955 2.183 2.443 2.82 3.228 4.213.378.672 1.052 1.599 1.498 2.06.445.462.81 1.075.81 1.363 0 .288.243.524.54.524.297 0 .54.254.54.564 0 .462 1.423 2.693 2.166 3.396.39.367 1.622 2.4 2.621 4.32.567 1.089 1.18 2.134 1.362 2.322.182.188.331.634.331.99s.151.648.336.648c.275 0 .8 1.032.916 1.8.014.099.289.585.61 1.08.32.495.692 1.264.824 1.71.134.445.38.81.55.81s.41.475.539 1.055c.127.58.464 1.248.748 1.484.285.236.517.733.517 1.105s.162.676.36.676c.198 0 .36.324.36.72 0 .396.162.72.36.72.198 0 .36.33.36.733 0 .403.233 1.091.518 1.53.286.438.577 1.202.648 1.697.072.495.558 1.781 1.082 2.857.523 1.077.87 2.09.77 2.25-.1.162-.01.293.2.293s.382.487.382 1.08c0 .596.324 1.687.72 2.426.396.738.72 1.518.72 1.731 0 .213.405 1.228.9 2.254s.9 2.32.9 2.875.189 1.199.42 1.43c.23.23.42 1.154.42 2.052 0 .898.135 1.632.3 1.632.165 0 .3.243.3.54 0 .297.172.54.382.54.21 0 .28.162.158.36-.122.198-.051.36.158.36.224 0 .382.834.382 2.006 0 1.302.189 2.194.54 2.545.355.355.54 1.25.54 2.603 0 1.134.153 2.216.341 2.404.435.436.572 7.123.16 7.773-.172.27-.408 1.776-.527 3.35-.127 1.677-.39 2.918-.636 3-.24.08-.418.874-.418 1.87 0 1.66-1.105 4.904-1.526 4.482-.113-.112-.211.655-.22 1.705-.007 1.05-.185 1.966-.394 2.035-.209.07-.38.75-.38 1.511 0 .762-.243 1.628-.54 1.925-.297.297-.54.748-.54 1.003 0 .65-1.115 3.583-1.686 4.438-.26.39-.474 1.07-.474 1.509s-.162.899-.36 1.021c-.198.122-.36.7-.36 1.282 0 .582-.189 1.058-.42 1.058-.23 0-.317.104-.19.23.126.126-.09.677-.48 1.225-.39.547-.71 1.316-.71 1.707 0 .39-.222.894-.495 1.121-.272.226-.495.83-.495 1.345s-.154 1.037-.341 1.163c-.188.126-.65.985-1.028 1.91-.377.924-.851 1.586-1.053 1.472-.202-.115-.25-.079-.106.08.224.25-1.324 3.624-1.9 4.147-.11.099-.479.78-.82 1.515-.342.734-.78 1.432-.972 1.551-.193.12-.35.492-.35.83 0 .336-.365 1.023-.81 1.526-1.06 1.196-1.71 2.353-1.71 3.044 0 .306-.243.65-.54.764-.297.114-.54.513-.54.889 0 .374-.135.681-.3.681-.164 0-1.334 1.499-2.597 3.33-2.503 3.628-2.737 3.945-3.673 4.976-.347.382-.549.694-.45.694.098 0-.428.63-1.17 1.4-1.806 1.874-2.97 3.241-2.97 3.489 0 .35-1.01 1.231-1.414 1.231a.387.387 0 0 0-.386.386c0 .498-.916 1.414-1.414 1.414a.396.396 0 0 0-.386.401c0 .22-.687.99-1.526 1.71-.838.72-2.002 1.836-2.586 2.479-.583.644-1.274 1.17-1.535 1.17-.26 0-.433.203-.383.45.05.248-.113.41-.36.36-.248-.05-.45.153-.45.45 0 .305-.322.54-.742.54-.407 0-.64.162-.518.36.122.198.034.36-.197.36-.23 0-.878.365-1.438.81-1.63 1.294-3.024 2.246-3.297 2.248-.139.001-.455.205-.702.452s-.588.45-.755.45c-.168 0-.68.405-1.14.9s-1.162.9-1.564.9c-.401 0-.823.243-.938.54-.113.297-.626.54-1.139.54-.53 0-.837.156-.71.36.125.203-.164.36-.66.36-.486 0-.98.253-1.099.563-.118.31-.366.47-.55.357-.183-.114-.577.038-.876.336-.299.3-.975.544-1.502.544-.528 0-1.36.315-1.849.7-.49.385-1.134.606-1.432.492-.297-.114-.894-.04-1.326.168-.432.206-1.08.47-1.439.585s-.578.333-.487.482c.09.15-.746.319-1.86.376-1.113.055-2.386.339-2.83.63-1.183.775-17.6.754-18.628-.025-.386-.29-1.277-.529-1.98-.53-.705-.002-1.745-.244-2.31-.538-.565-.295-1.154-.458-1.308-.362-.155.096-.483-.067-.728-.362-.244-.295-.972-.536-1.616-.536s-1.373-.243-1.62-.54c-.247-.297-.995-.54-1.664-.54-.669 0-1.216-.16-1.216-.353 0-.194-.404-.454-.897-.579-.494-.124-.809-.37-.7-.547.11-.176-.306-.321-.923-.321-.657 0-1.03-.15-.9-.36.127-.204-.18-.36-.71-.36-.513 0-1.026-.243-1.14-.54-.114-.297-.594-.54-1.069-.54-.473 0-.861-.143-.861-.318 0-.175-.34-.407-.756-.515-.416-.11-.66-.353-.545-.542.117-.188-.069-.445-.413-.57a8.585 8.585 0 0 1-1.346-.679c-2.914-1.827-4.036-2.616-4.542-3.193-.32-.364-.755-.663-.964-.663-.21 0-.7-.405-1.09-.9-.389-.495-.87-.9-1.068-.9-.198 0-.452-.243-.567-.54-.113-.297-.464-.54-.779-.54s-.479-.151-.365-.336c.114-.184-.281-.624-.879-.977-.597-.354-1.086-.85-1.086-1.104 0-.255-.18-.463-.402-.463-.48 0-3.198-2.653-3.198-3.121 0-.18-.35-.352-.778-.385-.427-.032-.878-.22-1-.419-.123-.199-.92-.472-1.772-.61-1.042-.166-1.392-.346-1.069-.55.302-.192-.125-.306-1.15-.31-.897-.002-1.95-.228-2.34-.502-.392-.273-1.417-.506-2.278-.517-.888-.013-1.837-.266-2.189-.584-.34-.31-1.216-.562-1.942-.562-.727 0-1.322-.162-1.322-.36 0-.198-.231-.36-.514-.36-.283 0-.77-.255-1.08-.566-.311-.31-.93-.528-1.376-.48-.446.045-1.215-.093-1.71-.31a12.028 12.028 0 0 0-1.904-.61c-.621-.133-.91-.37-.756-.62.147-.236.09-.306-.135-.166-.213.131-.631-.006-.93-.304-.299-.3-.942-.544-1.431-.544-.488 0-.98-.243-1.095-.54-.113-.297-.516-.54-.893-.54-.378 0-.89-.243-1.136-.54-.247-.297-.725-.54-1.061-.54-.338 0-.994-.405-1.459-.9-.465-.495-1.072-.9-1.348-.9-.277 0-.73-.203-1.006-.45-1.085-.974-1.458-1.17-2.266-1.202-1.155-.044-1.928 1.224-1.635 2.685.126.634.315 1.067.42.962.333-.334 1.155.59 1.155 1.3 0 .378.243.781.54.894.297.115.54.437.54.717 0 .431 1.581 3.17 2.156 3.734.259.254 1.04 1.517 1.338 2.16.137.297.623.945 1.082 1.44s.922 1.183 1.032 1.53c.11.346.352.63.536.63.185 0 .336.16.336.355 0 .333.68 1.272 1.693 2.342.237.251.332.557.21.68-.123.123.047.223.377.223s.6.17.6.376c0 .207.405.781.9 1.276s.9 1.042.9 1.215c0 .173.648.989 1.44 1.813.792.824 1.44 1.582 1.44 1.685 0 .102.486.64 1.08 1.195.594.555 1.08 1.187 1.08 1.404 0 .218.243.396.54.396.297 0 .54.152.54.338 0 .448 5.326 5.782 5.773 5.782 1.544 0-.028.915-1.689.984-1.117.046-2.406.33-2.865.63-.495.324-1.653.546-2.848.546-1.21 0-1.927.14-1.797.35.118.192-.237.448-.79.57s-1.247.301-1.544.401c-.54.182-2.678.534-3.494.576-.24.013-.363.138-.276.28.192.31-1.636.703-3.273.703-.657 0-1.295.162-1.417.36-.122.198-.912.36-1.754.36-.896 0-2.305.373-3.397.9-1.164.562-2.509.904-3.577.912-.942.006-2.026.249-2.41.54-.386.29-1.304.528-2.042.528-1.256 0-3.592.926-3.86 1.53-.066.148-.917.27-1.89.27-1.334 0-1.77.133-1.77.54 0 .407-.437.54-1.778.54-.979 0-1.88.162-2.002.36-.122.198-.87.36-1.662.36-.869 0-1.352.143-1.218.36.122.198.062.36-.133.36s-.595.24-.888.532c-.292.292-1.042.57-1.666.618-.624.047-1.307.294-1.518.548-.21.254-.85.462-1.42.462s-1.037.121-1.039.27c-.001.148-.726.588-1.61.976-.884.39-1.688.916-1.785 1.17-.098.255-.679.464-1.29.464-.66 0-1.022.148-.888.364.125.203-.266.462-.879.585-.607.122-1.104.363-1.104.536 0 .173-.307.315-.681.315-.376 0-.775.243-.89.54-.113.297-.536.54-.937.54-.403 0-.732.162-.732.36 0 .198-.324.36-.72.36-.396 0-.72.121-.723.27-.002.327-2.226 1.687-2.607 1.595-.149-.036-.27.188-.27.497 0 .308-.162.46-.36.338-.198-.122-.36-.051-.36.158 0 .21-.122.342-.27.295-.427-.138-1.913 1.025-1.648 1.29.13.13-.118.237-.553.237-.435 0-.885.243-.999.54-.114.297-.513.54-.889.54-.374 0-.681.162-.681.36 0 .198-.248.36-.552.36-.302 0-.644.243-.758.54-.114.297-.363.54-.554.54-.192 0-.55.202-.798.45-.249.247-.979.855-1.624 1.35a41.863 41.863 0 0 0-2.347 1.98c-3.62 3.328-4.998 4.5-5.286 4.5-.176 0-.321.243-.321.54 0 .297-.143.54-.318.54-.264 0-1.587 1.294-5.352 5.237-.248.26-.45.547-.45.64 0 .094-.77.961-1.71 1.929-2.033 2.09-3.902 4.507-3.78 4.884.05.149-.153.27-.45.27-.297 0-.54.215-.54.477 0 .263-.405.858-.9 1.323s-.9 1.06-.9 1.323c0 .262-.153.477-.34.477-.35 0-1.126 1.247-1.83 2.941-.22.528-.632 1.05-.915 1.158-.284.11-.515.528-.515.93s-.151.731-.336.731-.443.337-.573.747c-.13.411-.334.65-.454.531-.208-.209-1.306 1.727-3 5.292-.447.94-.943 1.71-1.105 1.71-.16 0-.292.496-.292 1.102 0 .605-.145 1.011-.321.901-.178-.109-.423.206-.548.7-.124.493-.384.897-.578.897-.194 0-.353.238-.353.53 0 .29-.436 1.465-.968 2.61-.532 1.144-.974 2.242-.982 2.44-.008.198-.48 1.215-1.052 2.259-.58 1.062-.957 2.207-.855 2.597.1.384-.044.885-.32 1.115-.277.23-.503.892-.503 1.474 0 .581-.378 1.736-.84 2.566-.462.83-.862 2.115-.889 2.855-.027.741-.297 1.826-.6 2.412-.303.586-.551 1.815-.551 2.73 0 .998-.216 1.88-.54 2.203-.82.822-.82 100.034 0 99.718.515-.197.738.53.566 1.845-.033.25.19.552.497.67.307.117.557.438.557.715 0 .275.189.501.42.501.23 0 .317.103.19.23-.126.125.068.652.43 1.17.361.517.721 1.142.799 1.387.23.73 3.708 4.73 4.13 4.753.214.011.605.422.867.914.264.492.777.989 1.142 1.104.364.116.83.524 1.035.906.205.383.593.696.86.696.27 0 .583.243.697.54.114.297.436.54.714.54.28 0 .71.243.956.54.247.297.762.54 1.146.54.383 0 .618.128.52.284-.188.306 1.155.946 2.742 1.305.543.123.948.423.9.667-.177.896 319.014.8 319.848-.096.37-.396.98-.72 1.357-.72.376 0 .785-.162.907-.36.122-.198.537-.36.922-.36.384 0 .698-.124.698-.277 0-.152.931-.8 2.07-1.44 2.59-1.455 3.33-2.027 3.33-2.574 0-.237.131-.35.292-.251.16.099.684-.296 1.165-.879.482-.583 1.08-1.059 1.33-1.059.249 0 .412-.126.363-.28-.05-.154.521-.892 1.268-1.64.747-.749 1.8-2.04 2.337-2.87.538-.83 1.122-1.613 1.298-1.74.176-.126.216-.396.09-.6-.127-.205.015-.616.313-.915.3-.299.544-.704.544-.9 0-.195.172-.412.382-.483.211-.07.434-.587.495-1.15.063-.563.335-1.162.608-1.33.701-.433.746-98.288.045-98.522-.284-.094-.45-.846-.45-2.028 0-1.033-.135-2.032-.3-2.22-.508-.578-1.478-3.516-1.568-4.752-.046-.643-.223-1.17-.39-1.17s-.212-.151-.097-.335c.113-.184.042-.437-.159-.561-.201-.125-.366-.765-.366-1.424 0-1.1-.333-2.014-1.252-3.44-.337-.523-.41-.749-.67-2.05-.066-.336-.286-.666-.487-.733-.202-.067-.297-.483-.213-.925.091-.475-.15-1.153-.592-1.662-.41-.473-.746-1.21-.746-1.637 0-.428-.328-1.129-.727-1.558-.4-.43-.826-1.274-.947-1.876-.12-.601-.36-1.182-.533-1.288-.172-.106-.313-.5-.313-.875 0-.374-.203-.81-.45-.968-.248-.158-.672-.774-.942-1.368a28.174 28.174 0 0 0-.795-1.62c-.167-.297-.728-1.378-1.247-2.402-.519-1.025-1.159-1.946-1.42-2.046-.263-.1-.587-.682-.722-1.29-.133-.61-.374-1.027-.535-.927-.161.099-.393-.224-.518-.718-.124-.493-.384-.897-.578-.897-.194 0-.353-.243-.353-.54 0-.297-.122-.54-.27-.543-.282-.002-1.365-1.741-1.431-2.297-.02-.176-.177-.419-.347-.54-.171-.121-.87-.949-1.557-1.84-.684-.891-1.409-1.794-1.61-2.006-.2-.213-.851-1.007-1.445-1.766-.594-.758-1.445-1.751-1.89-2.207-.446-.455-.81-.929-.81-1.05 0-.366-1-1.251-1.414-1.251a.385.385 0 0 1-.386-.383c0-.51-6.518-6.976-7.36-7.3-.365-.14-.566-.35-.448-.468.214-.215-.597-1.209-.986-1.209-.113 0-.501-.284-.862-.63-2.121-2.035-3.68-3.33-4.009-3.33a.375.375 0 0 1-.375-.372c0-.203-.284-.479-.63-.61-.347-.133-1.033-.614-1.526-1.07-.493-.455-1.384-1.065-1.98-1.354-.596-.29-1.651-1.031-2.344-1.65s-1.706-1.287-2.25-1.489c-.545-.2-.99-.512-.99-.69 0-.18-.236-.325-.524-.325-.288 0-.895-.365-1.35-.81-.455-.446-1.15-.865-1.547-.933-.395-.068-.773-.27-.839-.45-.066-.18-.338-.327-.605-.327-.266 0-.698-.213-.959-.475-.262-.261-1.165-.778-2.006-1.15-.842-.37-1.53-.804-1.53-.964 0-.16-.486-.291-1.08-.291-.594 0-1.08-.143-1.08-.319 0-.45-1.715-1.52-2.535-1.58-.377-.03-.766-.262-.864-.517-.098-.255-.674-.464-1.281-.464s-1.183-.209-1.28-.464c-.099-.255-.695-.504-1.326-.551-.63-.049-1.233-.223-1.34-.388-.107-.165-.559-.414-1.004-.553-.446-.14-.81-.404-.81-.588 0-.185-.658-.336-1.462-.336-.882 0-1.372-.142-1.238-.36.137-.222-.476-.36-1.598-.36-1.38 0-1.822-.131-1.822-.54 0-.407-.437-.54-1.77-.54-.973 0-1.824-.122-1.89-.27-.233-.525-2.86-1.53-4.003-1.532-.636-.002-1.621-.245-2.188-.54-.567-.296-1.904-.538-2.97-.538-1.067 0-1.939-.13-1.939-.29 0-.534-2.742-1.51-4.24-1.51-.813 0-1.566-.142-1.673-.316-.107-.175-1.202-.39-2.43-.479-1.256-.09-2.298-.346-2.376-.583-.077-.232-.46-.422-.85-.422-1.409 0-5.712-1.147-5.513-1.47.115-.185-.679-.33-1.809-.33-1.143 0-2.36-.224-2.812-.517-.438-.286-1.65-.585-2.692-.667-1.95-.153-2.386-.528-1.343-1.156.794-.478 5.018-4.5 4.726-4.5-.125 0 .096-.324.492-.72.396-.396.909-.72 1.14-.72.23 0 .313-.107.182-.239-.131-.13.409-.872 1.2-1.647.79-.775 1.438-1.568 1.438-1.763 0-.194.162-.253.36-.131.198.122.36.028.36-.209s.284-.639.63-.893c.347-.253.635-.595.643-.76.026-.593 1.07-1.918 1.513-1.918.25 0 .454-.17.454-.375 0-.207.405-.813.9-1.347s.9-1.092.9-1.24c0-.26.768-1.28 1.71-2.272.247-.261.45-.62.45-.798 0-.177.405-.703.9-1.168s.9-.993.9-1.172c0-.18.567-1.019 1.26-1.865.693-.846 1.26-1.667 1.26-1.826 0-.159.376-.79.835-1.403.46-.613 1.185-1.843 1.614-2.734.427-.891 1.348-2.418 2.045-3.393.696-.976 1.266-1.975 1.266-2.22 0-.246.121-.5.27-.567.148-.066.749-1.092 1.334-2.28.586-1.188 1.226-2.379 1.424-2.645.197-.267.41-.827.474-1.245.064-.417.26-.849.438-.958.177-.11.434-.643.57-1.186.137-.542.392-.986.569-.986.177 0 .321-.405.321-.9s.162-.9.36-.9c.198 0 .36-.48.36-1.067 0-.709.248-1.201.739-1.463.467-.25.698-.681.63-1.174-.075-.532.11-.822.586-.916.381-.075.912-.356 1.18-.623.267-.268.71-.4.982-.296.588.225 2.778-.825 3.191-1.53.158-.27.579-.491.934-.491.844 0 2.542-.856 3.538-1.784.434-.405.896-.736 1.027-.736.415 0 2.857-2.29 2.763-2.591-.05-.16.153-.289.45-.289.297 0 .54-.154.54-.343 0-.188.592-.917 1.315-1.62.723-.702 1.179-1.277 1.012-1.277-.166 0 .011-.316.395-.703.99-.995 1.598-1.753 1.598-1.989 0-.112.405-.844.9-1.628s.9-1.753.9-2.153c0-.4.162-.727.36-.727.198 0 .36-.393.36-.874s.248-1.123.553-1.427c.304-.305.554-.638.556-.74 0-.102.238-.75.526-1.441.29-.69.525-1.629.525-2.086s.238-1.17.527-1.584c.338-.483.52-1.597.509-3.106-.01-1.294.156-2.679.368-3.075.213-.397.494-2.115.625-3.815.13-1.7.375-3.092.544-3.092s.307-.972.307-2.16c0-1.188-.138-2.16-.306-2.16-.168 0-.411-1.481-.54-3.293-.129-1.81-.417-3.514-.64-3.784-.225-.269-.39-1.26-.369-2.203.02-.942-.2-2.174-.493-2.738-.293-.563-.537-1.208-.545-1.433-.02-.68-1.28-3.136-1.498-2.918-.112.111-.309-.219-.438-.735-.248-.987-2.352-4.546-2.364-3.997-.004.176-.504-.31-1.111-1.08s-1.54-1.76-2.07-2.202a424.566 424.566 0 0 1-1.4-1.17c-.24-.201-.566-.367-.724-.367-.885 0-2.125-1.772-2.046-2.922.047-.669-.034-1.378-.18-1.577-.498-.684-.434-2.885.124-4.22.308-.736.563-2.275.565-3.42.004-1.476.107-1.924.355-1.541.285.441.583-5.143.456-8.55-.009-.248.128-.45.304-.45.449 0 .402-7.095-.053-7.943-.205-.384-.39-2.52-.41-4.747-.024-2.56-.137-3.653-.305-2.97-.209.846-.276.593-.31-1.17-.023-1.238-.002-2.306.048-2.375.05-.069-.132-.393-.404-.72-.272-.327-.353-.598-.18-.6.173-.003.126-.126-.105-.272-.23-.147-.465-1.157-.52-2.245-.057-1.088-.313-2.383-.57-2.878-.257-.495-.467-1.336-.47-1.868 0-.533-.163-1.07-.361-1.192-.198-.122-.36-.537-.36-.922 0-.384-.162-.698-.36-.698-.198 0-.36-.42-.36-.934s-.217-1.365-.482-1.89a264.02 264.02 0 0 1-1.31-2.666c-.455-.94-.967-1.71-1.138-1.71-.17 0-.31-.395-.31-.878 0-.484-.162-.98-.36-1.102-.198-.122-.36-.528-.36-.903 0-.374-.405-1.117-.9-1.651s-.9-1.173-.9-1.42c0-.247-.243-.542-.54-.657-.297-.113-.54-.536-.54-.937 0-.403-.162-.732-.36-.732-.198 0-.36-.234-.36-.52 0-.286-.298-.731-.663-.99-.365-.259-.869-.859-1.12-1.333-.253-.474-1.008-1.411-1.678-2.082-.67-.67-1.219-1.317-1.219-1.435 0-.12-.413-.6-.919-1.069-.505-.468-.823-.851-.706-.851.346 0-2.458-2.809-3.776-3.78-.67-.495-1.082-.9-.915-.9.167 0-.409-.511-1.28-1.137-.871-.624-1.715-1.355-1.874-1.622-.312-.526-4.03-3.361-4.408-3.361-.46 0-1.93-1.352-1.71-1.572.125-.125-.204-.228-.732-.228s-.96-.162-.96-.36c0-.198-.405-.36-.9-.36s-.9-.155-.9-.343c0-.189-.572-.615-1.273-.947-.699-.332-1.427-.894-1.617-1.249a6.566 6.566 0 0 0-.797-1.132c-.25-.267-1.014-1.212-1.7-2.098-.685-.886-1.374-1.665-1.53-1.73-.155-.067-.283-.3-.283-.517 0-.218-.972-1.347-2.16-2.51-1.188-1.162-2.16-2.182-2.16-2.268 0-.157-3.098-3.134-4.645-4.463-.476-.41-1.012-.743-1.192-.743-.179 0-.225-.162-.103-.36.122-.198.09-.36-.072-.36-.163 0-.776-.446-1.363-.99-.587-.545-1.156-.99-1.265-.99s-.66-.43-1.228-.956c-.567-.525-1.453-1.17-1.97-1.432-.518-.263-1.329-.845-1.802-1.294-.472-.45-1.165-.818-1.54-.818-.376 0-.776-.243-.89-.54-.114-.297-.413-.54-.665-.54-.25 0-.657-.241-.901-.536-.245-.295-.572-.458-.727-.362-.155.095-.374-.069-.488-.364-.114-.296-.435-.538-.713-.538-.28 0-.71-.243-.956-.54-.247-.297-.816-.54-1.265-.54-.45 0-.912-.245-1.026-.544-.115-.298-.335-.522-.49-.496-.814.133-1.554-.084-1.359-.4.126-.204-.176-.36-.698-.36-.507 0-.922-.162-.922-.36 0-.198-.55-.36-1.221-.36-.755 0-1.302-.207-1.43-.54-.136-.356-.7-.54-1.657-.54-.799 0-1.452-.144-1.452-.321 0-.177-.411-.424-.914-.55-.504-.127-.832-.365-.73-.53.102-.165-.712-.393-1.81-.506-1.097-.114-2.187-.357-2.421-.541-.233-.185-1.397-.374-2.585-.42a293.759 293.759 0 0 1-2.595-.108c-.238-.013-.51-.219-.6-.457-.382-.994-21.308-.993-21.69.001-.113.294-1.12.473-2.932.52-1.518.041-2.961.242-3.208.446-.246.204-1.422.46-2.613.568s-2.078.336-1.971.507c.105.171-.04.311-.325.311s-.72.243-.966.54c-.275.332-1.066.54-2.05.54-.943 0-1.824.221-2.141.54-.297.297-1.006.54-1.574.54s-1.133.162-1.255.36c-.122.198-.618.36-1.102.36-.483 0-.878.162-.878.36 0 .198-.388.36-.861.36-.475 0-.955.243-1.07.54-.128.336-.676.54-1.448.54-.683 0-1.295.127-1.361.283-.066.154-1.375.897-2.907 1.65-1.533.75-2.88 1.515-2.991 1.697-.113.181-.6.33-1.084.33-.483 0-.878.143-.878.318 0 .175-.284.413-.63.53-.73.245-1.818.929-2.552 1.603-.28.259-.733.385-1.005.281-.27-.104-.493-.037-.493.15s-.689.671-1.53 1.075c-1.761.846-2.734 1.435-3.43 2.073-.27.247-.733.45-1.027.45-.294 0-.435.162-.313.36.122.198.062.36-.133.36s-.576.202-.846.45c-.718.657-1.81 1.34-2.531 1.582-.347.117-.63.355-.63.53 0 .175-.297.318-.659.318-.363 0-.876.405-1.141.9s-.761.9-1.103.9c-.34 0-.713.243-.828.54-.113.297-.372.54-.575.54-.355 0-1.576.93-2.956 2.25-.362.346-.739.63-.838.63-.099 0-.475.283-.835.63-.361.346-1.285 1.116-2.053 1.71a34.464 34.464 0 0 0-2.494 2.155c-.604.592-1.19 1.078-1.304 1.08-.361.009-1.414 1.2-1.414 1.599a.387.387 0 0 1-.384.386c-.212 0-.92.567-1.573 1.26-.653.693-1.381 1.26-1.617 1.26s-.347.13-.25.29c.1.16-.701 1.084-1.778 2.054-1.077.969-1.958 1.972-1.958 2.229 0 .256-.142.467-.316.467-.175 0-1.025.931-1.89 2.07a126.064 126.064 0 0 1-1.934 2.498c-.198.236-.765 1.016-1.26 1.735a96.579 96.579 0 0 1-2.25 3.071c-.743.971-1.692 2.42-2.108 3.218-.417.798-.902 1.542-1.079 1.651-.178.11-.323.514-.323.899 0 .384-.172.698-.382.698-.21 0-.28.162-.158.36.122.198.051.36-.158.36-.21 0-.382.253-.382.562 0 .332-.17.456-.416.304-.233-.145-.318-.1-.194.1.121.198-.097.951-.484 1.675-.388.724-.706 1.587-.706 1.917 0 .332-.107.495-.239.363-.329-.328-1.561 1.77-1.561 2.659 0 .398-.243.816-.54.93-.297.114-.54.641-.54 1.172 0 1.091-1.228 3.73-1.574 3.384-.124-.124-.226.277-.226.893 0 .615-.13 1.199-.288 1.297-.158.098-.33.874-.38 1.724-.05.85-.326 1.805-.612 2.122-.286.316-.52 1.25-.52 2.076 0 .826-.162 1.502-.36 1.502-.198 0-.36.388-.36.861 0 .475-.243.955-.54 1.07-.372.142-.54.721-.54 1.855 0 .907-.215 2.087-.478 2.622-.264.535-.51 1.921-.547 3.082-.039 1.171-.306 2.447-.602 2.87-.294.418-.533 1.2-.533 1.738 0 .539-.162 1.08-.36 1.202-.198.122-.36 1.5-.36 3.06s-.162 2.938-.36 3.06c-.198.122-.36.942-.36 1.822 0 1.592-.005 1.598-1.282 1.598-.704 0-1.191.145-1.081.322.11.177-.038.413-.327.525-.796.305-.8.252-.507-8.047.365-10.355.59-13.564 1.007-14.344.193-.36.381-2.058.419-3.772.047-2.123.226-3.247.56-3.525.303-.25.491-1.145.491-2.33 0-1.74.817-4.32 1.537-4.855.152-.113.249-.518.213-.9-.138-1.491.064-3.427.34-3.256.16.098.331-.489.38-1.305.047-.817.344-1.981.66-2.589 1.09-2.101 1.19-2.358 1.19-3.053 0-.385.202-.914.45-1.175.247-.262.84-1.61 1.318-2.996.477-1.386.966-2.601 1.087-2.7.398-.326 1.105-2.18 1.105-2.897 0-.386.131-.703.292-.703.162 0 .64-.797 1.066-1.77.425-.973.941-1.873 1.148-2.001.206-.127.374-.546.374-.93 0-.385.144-.699.321-.699.177 0 .422-.405.547-.9s.385-.9.58-.9c.193 0 .352-.207.352-.46s.648-1.322 1.44-2.376c.792-1.054 1.44-2.126 1.44-2.381 0-.257.253-.563.562-.682s.463-.38.34-.578c-.124-.2.028-.363.336-.363a.553.553 0 0 0 .562-.54c0-.297.172-.54.382-.54.21 0 .298-.132.198-.294-.1-.162.134-.522.519-.8.386-.278.701-.63.701-.782 0-.377.787-1.29 4.05-4.703 1.534-1.605 2.79-3.05 2.79-3.21 0-.16.166-.291.37-.291.203 0 .892-.477 1.53-1.06 2.815-2.569 4.057-3.616 4.291-3.618.139-.001.706-.43 1.26-.952 1.615-1.521 3.775-3.012 4.085-2.82.158.097.613-.239 1.014-.747.4-.509 1.056-.95 1.458-.98.404-.03.813-.264.911-.519.098-.255.432-.464.743-.464.5 0 2.22-.917 2.698-1.44.54-.59 2.232-1.44 2.867-1.44.404 0 .733-.151.733-.336s.364-.442.81-.572c1.468-.429 2.79-1.063 2.79-1.34 0-.15.374-.272.832-.272.456 0 1.144-.238 1.53-.528.384-.291 1.215-.534 1.846-.54.632-.007 1.239-.156 1.348-.332.109-.176.633-.43 1.166-.564.534-.133 1.628-.565 2.434-.96.805-.393 2.274-.812 3.264-.93.99-.118 1.93-.433 2.088-.7.185-.313.985-.486 2.25-.486 1.08 0 1.962-.162 1.962-.36 0-.198.472-.36 1.05-.36.577 0 1.115-.195 1.195-.435.09-.268 1.165-.49 2.82-.58 1.47-.08 2.887-.317 3.147-.528.28-.226 2.291-.373 4.947-.36 2.46.013 4.395-.104 4.3-.259-.411-.665 15.19-1.636 20.228-1.259 1.152.086 4.28.248 6.953.361 5.7.238 6.1.288 6.419.795.15.237 1.856.379 4.489.37 2.74-.009 4.395.134 4.662.401.228.228 1.394.416 2.592.418 2.501.007 3.877.297 3.593.756-.11.176.379.32 1.083.32.705 0 1.282.162 1.282.36 0 .198.896.36 1.992.36 1.352 0 2.05.157 2.18.493.11.285.981.586 2.068.714 1.033.12 2.555.547 3.382.947.827.4 1.823.726 2.215.726.391 0 .926.208 1.187.463.262.254 1.029.502 1.704.55.675.048 1.41.337 1.633.642.224.306.563.525.752.488.896-.177 1.987.054 1.787.377-.122.198-.01.365.248.372.26.005 1.282.41 2.272.896.99.487 2.008.887 2.263.888.451.004 2.239 1.02 2.597 1.477.099.126.544.344.99.483.445.14.81.404.81.588 0 .185.304.336.676.336s.877.243 1.124.54c.247.297.693.54.993.54.3 0 .928.414 1.397.92.47.506 1.001.829 1.183.717.18-.112.544.01.808.27.263.26.772.584 1.131.721.36.136.553.41.43.61-.124.2.109.362.516.362.408 0 .742.162.742.36 0 .198.235.36.522.36.287 0 .652.207.81.46.158.253 1.017 1.016 1.908 1.696.891.682 1.976 1.609 2.413 2.061.435.453.9.823 1.032.823.335 0 8.795 8.486 8.795 8.822 0 .15.294.535.654.856.36.32 1.522 1.716 2.583 3.102a220.393 220.393 0 0 0 2.93 3.751c.55.678.916 1.366.815 1.53-.102.165-.013.299.196.299.21 0 .382.243.382.54 0 .297.141.54.313.54.173 0 .854 1.053 1.514 2.34s1.33 2.34 1.487 2.34c.157 0 .254.121.213.27-.121.452 1.503 3.33 1.88 3.33.195 0 .353.302.353.672s.567 1.78 1.26 3.133c.693 1.354 1.26 2.913 1.26 3.468 0 .655.189 1.007.54 1.007.297 0 .543.283.545.63.01.992.922 3.363 1.192 3.093.133-.134.248.31.255.987.006.676.249 1.544.54 1.928.29.386.528 1.228.528 1.873 0 .737.234 1.31.63 1.54.346.202.5.372.34.378-.16.006-.048.456.25 1.001.296.544.64 1.76.762 2.7s.374 1.71.56 1.71c.186 0 .338.855.338 1.9 0 1.083.226 2.222.526 2.65.303.433.563 1.763.614 3.14.048 1.314.217 2.39.374 2.39s.286.739.286 1.642c0 .902.142 1.553.316 1.445.44-.273.764 1.606.764 4.446 0 1.322.171 2.574.38 2.784.25.249.37 3.731.352 10.149-.026 9.128.02 9.864.7 11.197.778 1.527 2.433 3.257 3.116 3.257.228 0 .512.252.63.559.227.593 5.262.723 5.262.136 0-.152.554-.619 1.231-1.037 2.566-1.587 2.681-2.113 2.704-12.439.02-9.13-.51-15.407-1.447-17.158-.208-.391-.414-2.036-.456-3.656-.052-2.023-.262-3.227-.669-3.845-.333-.507-.624-1.766-.667-2.88-.044-1.137-.361-2.488-.746-3.172-.386-.685-.48-1.083-.22-.937.36.204.36.158 0-.23-.248-.267-.45-1.187-.45-2.046 0-.858-.23-1.92-.512-2.358-.282-.438-.555-1.445-.607-2.237-.051-.792-.277-1.683-.5-1.98-.224-.297-.397-.864-.384-1.26.012-.396-.058-.801-.157-.9-.633-.634-1.44-2.77-1.44-3.809 0-.709-.277-1.508-.653-1.884-.359-.359-.594-.826-.523-1.038.07-.212-.134-.647-.454-.968-.32-.32-.486-.581-.368-.581.117 0-.114-.642-.515-1.426-.4-.784-.727-1.655-.727-1.936 0-.28-.247-.714-.548-.964-.313-.26-.458-.74-.339-1.117.135-.422-.122-1.02-.711-1.655-.527-.568-.922-1.421-.922-1.988 0-.644-.19-.994-.54-.994-.336 0-.54-.34-.54-.9 0-.495-.143-.9-.318-.9-.175 0-.411-.284-.525-.63-.272-.825-1.853-3.638-2.66-4.733-.35-.474-.586-.932-.524-1.017.063-.085-.18-.428-.54-.762-.742-.692-1.394-1.665-1.907-2.853-.37-.857-1.673-2.788-2.436-3.611-.248-.267-.453-.595-.456-.73-.004-.134-.692-.998-1.53-1.92-2.328-2.56-3.144-3.576-3.144-3.91 0-.497-3.841-4.314-4.342-4.314-.252 0-.363-.095-.247-.21.265-.267-4.973-5.55-5.502-5.55-.216 0-.312-.129-.215-.285.096-.157-.623-.83-1.6-1.496-.976-.667-1.774-1.348-1.774-1.516 0-.166-.155-.303-.345-.303-.189 0-1.04-.646-1.89-1.436-.85-.789-1.709-1.437-1.909-1.44-.2-.002-.807-.415-1.35-.918-.542-.504-.986-.808-.986-.676 0 .131-.26.022-.579-.242-.754-.626-1.96-1.339-2.751-1.624-.347-.125-.63-.37-.63-.546 0-.175-.235-.318-.522-.318-.287 0-.652-.206-.81-.459-.41-.653-2.14-1.701-2.806-1.701-.31 0-.657-.242-.77-.538-.115-.295-.326-.465-.47-.376-.144.09-.896-.269-1.67-.795s-1.726-.981-2.112-1.01c-.387-.028-.765-.238-.842-.466-.076-.229-.534-.415-1.02-.415-.484 0-.974-.243-1.088-.54-.114-.297-.604-.54-1.09-.54-.51 0-.787-.156-.655-.369.125-.203.095-.346-.068-.318-1.11.194-2.277-.1-2.277-.573 0-.375-.378-.54-1.238-.54-.682 0-1.341-.165-1.466-.365-.293-.476-2.597-1.435-3.655-1.522-.453-.038-.903-.277-1.001-.53-.107-.28-.806-.463-1.77-.463-1.084 0-1.66-.173-1.8-.54-.146-.38-.741-.54-2.018-.54-.997 0-1.812-.122-1.812-.273 0-.426-2.72-1.167-4.289-1.167-.78 0-1.634-.214-1.897-.477-.28-.28-1.487-.513-2.945-.566-2.431-.088-4.189-.582-4.189-1.175 0-.742-58.091-.308-58.833.44m-3.447 279.3c0 .176.411.423.914.55.503.126.818.386.7.579-.12.191.076.35.434.35.359.003 1.116.246 1.683.54.567.297 1.349.539 1.736.539s.95.245 1.248.544c.299.298.674.462.833.363.16-.099.49.062.736.357.254.307 1.044.536 1.852.536.924 0 1.478.187 1.616.545.153.4.693.528 2.039.481 1.125-.04 1.883.096 1.969.355.077.23.382.419.678.419.59 0 .336 2.226-.282 2.46-.174.066-.316.44-.316.83 0 .392-.405 1.437-.9 2.323-.495.887-.9 2.017-.9 2.511 0 .494-.243.992-.54 1.106-.297.114-.542.554-.544.979-.001.424-.401 1.581-.888 2.571-.487.99-.89 1.983-.896 2.206-.007.223-.255.607-.552.854-.297.247-.54.984-.54 1.638 0 .655-.243 1.434-.54 1.73-.297.298-.54.88-.54 1.293 0 .414-.41 1.404-.913 2.2-.502.795-.808 1.615-.68 1.823.129.207-.019.89-.329 1.517-.308.626-.655 1.59-.77 2.143-.115.553-.366.909-.559.79-.192-.12-.349.198-.349.704 0 .507-.122.922-.272.922-.393 0-1.353 2.868-1.498 4.473-.017.183-.333.02-.704-.36-.37-.382-.615-.797-.543-.924.073-.128-.286-.337-.797-.466-.511-.127-1.36-.63-1.884-1.117s-1.487-1.138-2.137-1.447c-.697-.33-1.08-.725-.935-.96.159-.257.04-.322-.326-.18-.352.134-1.035-.187-1.769-.834-.658-.58-1.722-1.307-2.365-1.617-.644-.308-1.17-.716-1.17-.905 0-.188-.172-.343-.38-.343-.31 0-2.847-1.786-3.58-2.52-.099-.099-.37-.216-.601-.26-.232-.044-.83-.46-1.33-.923-.499-.462-1.525-1.155-2.278-1.54-.755-.383-1.425-.818-1.49-.967-.067-.148-.293-.27-.504-.27-.21 0-1.124-.607-2.03-1.35-.907-.742-1.787-1.35-1.957-1.35-.169 0-.498-.243-.729-.54-.232-.298-1.019-.856-1.75-1.24-.73-.385-1.23-.855-1.114-1.046.118-.19.04-.238-.172-.106-.213.131-.631-.006-.93-.304-.299-.3-.722-.544-.94-.544-.22 0-.491-.243-.605-.54-.114-.297-.432-.54-.709-.54-.275 0-.501-.143-.501-.318 0-.175-.284-.413-.63-.53-.782-.263-1.723-.893-2.88-1.93-.49-.44-1.196-.896-1.57-1.015-.374-.118-.68-.367-.68-.551 0-.185-.265-.336-.589-.336-.324 0-.932-.365-1.352-.81-.42-.446-1.212-1.041-1.759-1.325-1.084-.56-.742-1.09.708-1.1.434-.002.878-.148.986-.323.108-.175 1.078-.428 2.156-.563 1.078-.134 2.153-.477 2.389-.761.264-.32 1.095-.518 2.163-.518.954 0 1.823-.142 1.931-.316.264-.426 3.253-1.208 5.247-1.37.891-.073 1.674-.29 1.74-.483.066-.193 1.002-.351 2.081-.351 1.412 0 2.02-.151 2.168-.54.144-.372.73-.542 1.88-.545 1.748-.006 3.924-.616 4.806-1.348.284-.235 1.362-.46 2.395-.496 1.034-.036 1.956-.191 2.05-.343.094-.152 1.1-.392 2.235-.531 1.136-.14 2.146-.37 2.245-.51.492-.7 2.88-1.633 2.88-1.126m67.204.371c.234.015.663.267.956.559.31.31 1.368.572 2.539.63 1.104.055 2.076.275 2.16.49.084.214.937.416 1.897.45 1.539.052 2.377.318 4.89 1.552.343.168 1.336.307 2.205.307.966 0 1.755.21 2.029.54.295.356 1.099.54 2.354.54 1.048 0 1.96.141 2.026.314.066.173.955.402 1.976.51 1.02.107 2.235.397 2.7.646.464.248.884.425.934.391.33-.224.812.005.63.299-.139.224.572.36 1.886.36 1.16 0 2.285.175 2.499.389.213.213 1.096.54 1.962.725 3.995.855 5.666 1.504 5.166 2.005-.265.264-.6.481-.744.481-.144 0-.792.405-1.441.9-.65.495-1.353.9-1.564.9-.211 0-.384.162-.384.36 0 .198-.234.36-.52.36-.286 0-.745.323-1.022.717-.276.395-.605.615-.731.489-.127-.126-.333.037-.457.363-.125.325-.533.591-.909.591-.374 0-.681.167-.681.372 0 .203-.284.479-.63.61-.347.133-1.033.614-1.526 1.07-.494.455-1.088.828-1.32.828-.233 0-.478.15-.544.333-.066.184-.344.386-.619.45-.274.065-.905.482-1.402.927-.498.446-1.124.81-1.391.81-.268 0-.488.166-.488.369 0 .203-.365.534-.81.735-1.248.566-2.642 1.405-2.34 1.41.508.01-1.17 1.446-1.688 1.446-.286 0-.617.158-.736.35-.12.193-.817.632-1.551.976-.735.344-1.794 1.078-2.356 1.632-.56.554-1.15.926-1.312.827-.16-.1-.393.084-.518.409-.124.324-.313.502-.418.397-.106-.106-.705.276-1.332.849-.627.572-1.338 1.04-1.581 1.04-.243 0-.572.203-.73.45-.158.248-.766.694-1.35.99-.584.297-1.516.98-2.07 1.518-.583.566-1.238.891-1.549.772-.296-.114-.539-.054-.539.133 0 .432-4.712 3.697-5.336 3.697-.257 0-.397.122-.312.27.086.149-.132.565-.484.927-.616.633-.648.617-.88-.446-.134-.607-.393-1.196-.576-1.308-.183-.113-.332-.526-.332-.917 0-.39-.242-1.081-.538-1.534-.297-.452-.575-1.256-.62-1.786-.044-.531-.206-.966-.36-.966-.155 0-.282-.336-.282-.746s-.243-.988-.54-1.285c-.297-.297-.54-.925-.54-1.393 0-.47-.162-.954-.36-1.076-.198-.122-.36-.68-.36-1.237s-.243-1.216-.54-1.463c-.297-.247-.54-.677-.54-.957 0-.28-.262-.908-.581-1.396-.32-.487-.47-.887-.334-.887.136 0-.073-.407-.464-.904-.391-.497-.63-1.212-.533-1.587.1-.384-.11-.971-.485-1.346-.428-.428-.62-1.046-.542-1.743.068-.594.007-.965-.135-.824-.349.346-1.606-2.178-1.606-3.223 0-.46-.243-.93-.54-1.042-.337-.13-.54-.68-.54-1.455 0-.687-.229-1.476-.508-1.756-.28-.279-.423-.834-.318-1.234.128-.49.014-.726-.35-.726-.297 0-.625-.324-.728-.72-.156-.594-.011-.72.828-.72.558 0 1.08-.19 1.156-.421.085-.252.8-.396 1.786-.358 1.086.04 1.796-.122 2.093-.48.247-.297.99-.541 1.649-.541.687 0 1.767-.385 2.526-.9.73-.495 1.628-.92 1.996-.945.827-.056.963-.094 2.223-.616.557-.23 1.14-.419 1.295-.419.154 0 .56-.308.9-.685.34-.376.892-.632 1.225-.567.334.064.798.13 1.03.144m-31.027 5.785c.256.212.817 1.232 1.246 2.265.765 1.84.97 2.315 2.471 5.71 2.1 4.744 2.184 4.69-7.19 4.69-9.576 0-9.07.574-6.064-6.902a155.77 155.77 0 0 0 1.327-3.417c.632-1.713 1.1-2.323 2.081-2.718.976-.393 5.542-.115 6.13.372m-92.296 7.154c.473.37 2.155 1.555 3.739 2.633s4.743 3.239 7.02 4.802a5504.498 5504.498 0 0 0 19.44 13.267c2.475 1.68 6.363 4.334 8.64 5.896a4315.13 4315.13 0 0 0 7.74 5.298c15.03 10.258 14.34 9.71 14.718 11.704.885 4.68 6.643 9.743 11.068 9.73 1.54-.004 1.56 1.097.117 6.299-.276.99-.659 2.529-.852 3.42-.435 1.998-1 4.155-1.878 7.17-.37 1.271-.673 2.627-.673 3.013 0 .385-.233 1.451-.518 2.368-.286.918-.835 2.965-1.22 4.549a340.575 340.575 0 0 1-1.127 4.5c-.233.891-.639 2.592-.9 3.78a184.945 184.945 0 0 1-2.155 8.64c-.772 2.767-1.287 4.867-1.676 6.84a40.73 40.73 0 0 1-.856 3.42c-.275.891-.685 2.43-.91 3.42-.225.99-.626 2.691-.893 3.78-.266 1.089-.755 3.114-1.086 4.5-.331 1.386-.83 3.173-1.11 3.972-.28.799-.509 1.784-.509 2.19 0 .405-.302 1.777-.672 3.048-.888 3.048-1.281 4.593-3.107 12.21-1.326 5.531-1.724 7.124-2.065 8.258a70.533 70.533 0 0 0-.843 3.24 474.138 474.138 0 0 1-1.233 5.062 353.04 353.04 0 0 0-1.299 5.4c-.295 1.287-.812 2.907-1.148 3.6l-.613 1.26-27.86.092c-19.872.066-27.998-.02-28.339-.303-.378-.315-.498-3.288-.58-14.313-.114-15.666-.024-15.157-2.922-16.482-1.243-.568-1.526-.58-2.847-.112-3.027 1.07-2.959.703-3.073 16.474-.09 12.487-.162 13.97-.698 14.374-.907.682-37.976.633-40.899-.055-3.831-.902-7.003-3.741-8.832-7.91l-.77-1.757v-36.822c0-31.235.082-37.25.54-39.644.297-1.552.54-3.36.54-4.015 0-2.092 1.442-8.093 3.563-14.827 1.455-4.622 2.183-6.594 2.582-7.002.185-.188.335-.556.335-.817 0-.715 2.75-6.272 5.22-10.545 11.356-19.656 29.388-34.658 50.94-42.381 5.886-2.111 6.673-2.232 7.961-1.224m183.453.381c14.964 4.972 27.523 12.688 38.44 23.62 9.451 9.465 18.064 22.704 21.773 33.468.341.99.988 2.853 1.436 4.14 1.899 5.451 2.844 9.673 4.228 18.9.592 3.94.649 7.476.649 40.14v35.82l-.84 2.2c-1.566 4.1-5.19 7.307-9.367 8.29-2.462.58-40.193.706-41.093.138-.46-.29-.567-2.439-.72-14.485-.199-15.662-.116-15.144-2.61-16.333-1.627-.775-3.6-.326-4.972 1.133l-.878.935-.1 14.1c-.09 12.655-.162 14.148-.7 14.552-.465.351-6.682.45-28.223.45-30.279 0-28.48.13-28.967-2.095-.115-.531-.504-2.099-.863-3.485-1.322-5.1-1.492-5.792-1.816-7.38a51.831 51.831 0 0 0-.855-3.42 140 140 0 0 1-1.23-4.68l-1.149-4.68c-.244-.99-.667-2.822-.94-4.072-.272-1.25-.657-2.575-.856-2.946-.199-.371-.361-1.024-.361-1.453 0-.427-.303-1.856-.674-3.173-.923-3.278-1.434-5.253-2.02-7.796a162.223 162.223 0 0 0-.921-3.78 403.86 403.86 0 0 1-1.137-4.5 451.638 451.638 0 0 0-1.087-4.32c-.206-.792-.597-2.371-.868-3.51-1.373-5.765-2.242-9.227-3.186-12.69-.27-.99-.676-2.61-.902-3.6a326.79 326.79 0 0 0-1.126-4.68 432.305 432.305 0 0 1-1.219-5.04c-.604-2.587-1.123-4.586-2.026-7.796-.37-1.317-.674-2.689-.674-3.048 0-.358-.229-1.305-.509-2.104-.28-.799-.779-2.586-1.11-3.972s-.846-3.492-1.144-4.68c-1.041-4.144-.905-4.972.872-5.279 4.968-.856 8.724-4.144 10.628-9.301 1.014-2.747.248-2.087 10.523-9.056 3.366-2.283 7.74-5.26 9.72-6.617a6694.151 6694.151 0 0 1 17.4-11.867c2.04-1.386 8.515-5.8 14.389-9.81 5.873-4.01 10.958-7.29 11.298-7.29.342 0 2.044.473 3.787 1.052"/>
  <path fill="#86632d" d="M175.954 18.255c.448.086 1.096.083 1.44-.007.344-.09-.022-.162-.814-.157-.792.003-1.074.077-.626.164m43.016-.007c.347.09.913.09 1.26 0s.063-.164-.63-.164-.977.073-.63.164M59.515 166.32c0 1.287.066 1.814.145 1.17.08-.643.08-1.697 0-2.34-.08-.643-.145-.117-.145 1.17m.018 7.2c0 2.079.06 2.93.132 1.89a32.694 32.694 0 0 0 0-3.78c-.072-1.04-.132-.189-.132 1.89m135.394 117.705c-.982.395-1.449 1.005-2.081 2.718-.292.79-.889 2.328-1.327 3.417-3.007 7.476-3.512 6.901 6.064 6.901 9.374 0 9.29.055 7.19-4.69-1.5-3.395-1.706-3.87-2.471-5.71-.43-1.033-.99-2.052-1.246-2.264-.587-.488-5.153-.765-6.129-.372m5.669 1.222c.522.523 1.115 1.826 2.64 5.813.531 1.386 1.122 2.713 1.312 2.95.191.237.295.804.23 1.26l-.118.83h-14.04l.062-.949c.034-.522.38-1.656.768-2.52.388-.864 1.074-2.624 1.526-3.911 1.232-3.51 1.766-3.96 4.7-3.96 1.565 0 2.606.174 2.92.487M105.3 298.45c-15.883 4.372-34.153 16.283-45.262 29.509-6.302 7.502-15.398 22.235-15.398 24.94 0 .262-.15.63-.335.818-.4.408-1.127 2.38-2.582 7.002-2.121 6.734-3.563 12.735-3.563 14.827 0 .656-.243 2.463-.54 4.015-.458 2.394-.54 8.41-.54 39.644v36.822l.77 1.756c1.83 4.17 5 7.01 8.832 7.911 2.923.688 39.992.737 40.899.055.536-.403.608-1.887.698-14.374.115-15.771.046-15.404 3.073-16.474 1.321-.467 1.605-.456 2.847.112 2.898 1.325 2.808.816 2.923 16.482.08 11.025.201 13.998.58 14.313.34.282 8.466.37 28.338.303l27.86-.092.613-1.26c.336-.693.853-2.313 1.148-3.6.295-1.287.88-3.717 1.299-5.4a474.138 474.138 0 0 0 1.233-5.063 70.533 70.533 0 0 1 .843-3.24c.341-1.134.74-2.726 2.065-8.257 1.826-7.617 2.22-9.162 3.107-12.21.37-1.271.672-2.643.672-3.049 0-.405.229-1.39.509-2.19.28-.798.779-2.585 1.11-3.971s.82-3.411 1.086-4.5c.267-1.089.668-2.79.893-3.78s.635-2.529.91-3.42c.276-.891.66-2.43.856-3.42.389-1.973.904-4.073 1.676-6.84a184.945 184.945 0 0 0 2.154-8.64c.262-1.188.668-2.889.901-3.78.234-.891.741-2.916 1.127-4.5.385-1.584.934-3.63 1.22-4.549.285-.917.518-1.983.518-2.368 0-.387.302-1.742.673-3.013.878-3.015 1.443-5.172 1.878-7.17.193-.891.577-2.43.852-3.42 1.444-5.202 1.424-6.303-.117-6.298-4.424.012-10.183-5.05-11.068-9.731-.377-1.994.311-1.446-14.718-11.705a4315.13 4315.13 0 0 1-7.74-5.297 2564.183 2564.183 0 0 0-8.64-5.896 5504.498 5504.498 0 0 1-19.44-13.267 2637.288 2637.288 0 0 0-7.02-4.802c-1.584-1.078-3.266-2.263-3.739-2.633-.91-.711-1.712-.782-3.461-.3m171.829 6.919c-5.874 4.01-12.349 8.424-14.388 9.81a6694.151 6694.151 0 0 0-17.401 11.867c-1.98 1.357-6.354 4.334-9.72 6.617-10.275 6.969-9.508 6.31-10.523 9.056-1.904 5.157-5.66 8.445-10.628 9.302-1.776.306-1.913 1.134-.872 5.278.298 1.188.813 3.294 1.144 4.68.331 1.386.83 3.173 1.11 3.972.28.799.509 1.746.509 2.104 0 .359.303 1.73.674 3.048.903 3.21 1.422 5.209 2.026 7.796.276 1.188.825 3.456 1.219 5.04.393 1.584.9 3.69 1.126 4.68.226.99.632 2.61.902 3.6.944 3.463 1.813 6.925 3.186 12.69.271 1.138.662 2.718.868 3.51.207.792.696 2.736 1.087 4.32.392 1.584.903 3.609 1.137 4.5.233.891.648 2.592.921 3.78.586 2.543 1.097 4.518 2.02 7.796.37 1.317.674 2.746.674 3.173 0 .429.162 1.082.36 1.453.2.37.585 1.696.858 2.946.272 1.25.695 3.082.94 4.072s.76 3.096 1.148 4.68a140 140 0 0 0 1.23 4.68c.289.99.673 2.529.855 3.42.324 1.588.494 2.28 1.816 7.38.36 1.386.748 2.954.863 3.485.486 2.225-1.312 2.095 28.967 2.095 21.541 0 27.758-.099 28.224-.45.537-.404.61-1.897.7-14.551l.099-14.101.878-.936c1.372-1.458 3.345-1.907 4.973-1.132 2.493 1.19 2.41.67 2.609 16.334.153 12.045.26 14.193.72 14.484.9.568 38.63.442 41.093-.138 4.178-.983 7.801-4.19 9.366-8.29l.841-2.2V419.4c0-32.664-.057-36.2-.649-40.14-1.384-9.227-2.33-13.449-4.228-18.9-.448-1.287-1.095-3.15-1.436-4.14-6.394-18.559-23.9-39.023-41.893-48.969-7.813-4.32-19.508-9.171-22.106-9.171-.34 0-5.426 3.28-11.3 7.29m-166.714-4.5c1.624 1.139 6.4 4.419 10.612 7.29 15.478 10.55 24.777 16.903 28.194 19.26 1.188.819 4.995 3.415 8.46 5.767 11.04 7.496 10.92 7.4 11.473 9.194 1.62 5.245 6.523 10.059 10.248 10.059 2.543 0 2.631-.729-2.263 18.772-2.452 9.772-4.658 18.659-4.902 19.748-.588 2.622-2.558 10.514-3.19 12.78-.276.99-1.17 4.554-1.986 7.92a685.66 685.66 0 0 1-2.005 8.1 531.67 531.67 0 0 0-2.208 8.82c-1.315 5.418-2.527 10.286-3.182 12.78a892.467 892.467 0 0 0-3.231 12.96c-1.575 6.679-2.767 10.8-3.126 10.805-9.81.147-54.879-.072-55.074-.267-.155-.155-.33-6.44-.388-13.969l-.106-13.688-.836-1.063c-2.615-3.32-6.743-3.068-8.864.543-.707 1.202-.743 1.853-.804 14.535-.038 7.672-.207 13.419-.401 13.613-.602.602-39.877.367-41.346-.247-3.586-1.499-6.138-4.459-7.131-8.271-.818-3.14-.827-65.81-.012-74.68.764-8.288 2.734-17.448 5.04-23.431.268-.693.918-2.394 1.448-3.78 9.319-24.431 30.568-44.484 57.226-54.009 5.441-1.944 4.878-1.975 8.354.46m180.44-1.309c25.314 8.153 45.728 25.414 56.792 48.018.872 1.782 1.723 3.495 1.892 3.805.27.497.936 2.171 2.712 6.815 2.4 6.276 4.268 14.793 5.055 23.04.818 8.562.787 72.46-.036 75.23-1.067 3.596-3.316 6.179-6.786 7.794l-1.823.849-20.228.003c-12.44.002-20.312-.128-20.441-.339-.117-.189-.249-6.466-.292-13.95-.073-12.578-.13-13.682-.746-14.59-2.263-3.336-6.928-3.153-8.975.351-.637 1.091-.678 2.024-.636 14.434.038 10.97-.042 13.34-.458 13.685-.794.659-54.565.607-55.225-.053-.384-.385-6.294-23-7.638-29.234-.171-.792-1.386-5.652-2.701-10.8-1.315-5.148-2.527-10.008-2.692-10.8-.166-.792-.735-3.06-1.266-5.04-.53-1.98-1.098-4.248-1.263-5.04-.448-2.156-2.166-8.95-3.102-12.271a56.374 56.374 0 0 1-.837-3.42c-.326-1.616-1.075-4.678-2.018-8.249-.892-3.379-2.762-10.882-3.23-12.96a104.923 104.923 0 0 0-.86-3.51l-.824-3.06c-.673-2.495-1.43-5.799-1.501-6.556-.054-.57.284-.783 1.773-1.12 4.984-1.123 10.58-6.674 10.58-10.492 0-1 .531-1.407 11.88-9.114a7120.507 7120.507 0 0 0 12.96-8.815c3.089-2.114 9.283-6.34 17.1-11.668l12.75-8.692c4.043-2.758 7.433-5.013 7.535-5.013.1 0 1.248.343 2.55.762"/>
</svg>
