<svg xmlns="http://www.w3.org/2000/svg" viewBox="0 0 400 400">
  <path fill="#f73b79" d="M284.847 10.344c-11.966 12.245-30.827 18.78-46.42 16.084-6.268-1.084-12.608-3.133-16.617-5.372-1.863-1.038-2.011-.98-3.895 1.544C175.27 79.777 124.31 133.934 69.413 180.42c-9.594 8.125-12.047 10.122-31.352 25.52-.923.735-5.01 3.846-9.083 6.911-8.326 6.267-8.047 5.955-6.977 7.813 1.465 2.538 3.566 8.185 4.601 12.353 1.147 4.615 1.57 14.695.81 19.31-.71 4.315-2.226 10.102-3.232 12.333-4.238 9.4-7.784 14.626-13.648 20.112-1.52 1.423-2.765 2.741-2.765 2.93 0 .357 4.814 7.748 25.413 39.033a27239.49 27239.49 0 0 1 15.083 22.956c5.59 8.518 11.888 18.103 13.994 21.3 2.104 3.198 5.643 8.58 7.86 11.961 2.219 3.382 4.187 6.154 4.372 6.16.184.007 1.663-.652 3.286-1.462 24.776-12.384 53.585-9.945 70.739 5.99 1.89 1.754 1.013 2.142 9.27-4.1 12.03-9.093 18.838-14.399 30.917-24.089l25.085-20.904c29.918-25.722 56.818-51.097 83.18-78.47 33.134-34.401 62.572-68.896 92.197-108.038 6.785-8.961 6.266-7.844 4.51-9.733-15.947-17.166-18.423-47.175-5.87-71.148 1.628-3.11 1.628-3.085-.253-4.28-.857-.542-12.108-7.936-25.002-16.43a17289.524 17289.524 0 0 0-29.513-19.406 5896.016 5896.016 0 0 1-10.985-7.198 8467.357 8467.357 0 0 0-10-6.564 16380.291 16380.291 0 0 1-14.542-9.538c-5.2-3.417-9.628-6.198-9.836-6.181-.209.015-1.93 1.615-3.823 3.552"/>
  <path fill="#070504" d="M277.647.427c0 .234-.353.691-.784 1.015-.432.324-.785.716-.785.87 0 .155-.262.509-.582.788-.321.28-.683.825-.806 1.214-.122.388-.354.706-.515.706-.161 0-.293.151-.293.336 0 .434-.798 1.232-1.232 1.232a.338.338 0 0 0-.336.338c0 .447-3.912 4.368-4.358 4.368-.192 0-.313.145-.27.322.043.177-.337.565-.846.863-.508.297-1.23.858-1.604 1.246-.374.389-.851.706-1.059.706-.208 0-.575.177-.816.393-1.119 1.003-1.418 1.176-2.033 1.176-.363 0-.571.142-.464.316.108.174-.061.396-.374.493a7.83 7.83 0 0 0-1.113.469c-.3.16-.829.291-1.177.291-.347 0-.631.141-.631.313 0 .173-.336.314-.746.314-.411 0-.922.212-1.137.471-.215.258-.867.47-1.45.47s-1.06.141-1.06.314c0 .173-.776.314-1.725.314-1.213 0-1.702.116-1.647.392.061.305-1.626.392-7.608.392-5.982 0-7.669-.087-7.608-.392.055-.272-.402-.392-1.49-.392-.863 0-1.569-.141-1.569-.314 0-.173-.476-.314-1.059-.314s-1.236-.212-1.45-.47c-.215-.259-.727-.471-1.137-.471-.41 0-.746-.141-.746-.314 0-.172-.353-.313-.784-.313-.431 0-.784-.139-.784-.308 0-.169-.353-.396-.785-.505-.431-.108-.784-.322-.784-.476 0-.154-.282-.28-.627-.28-.346 0-.628-.141-.628-.314 0-.172-.205-.313-.455-.313s-.568-.178-.706-.396c-.138-.217-.771-.668-1.408-1.002-.636-.334-1.087-.721-1.001-.86.086-.139-.346-.252-.96-.252-.615 0-1.117-.141-1.117-.314 0-.409-2.1-.409-2.353 0-.107.173-.688.314-1.292.314-.698 0-1.023.122-.891.335.114.184-.089.412-.452.507-.362.095-.659.297-.659.449 0 .153-.22.277-.489.277s-.409.129-.312.287c.098.158.071.335-.06.392-.13.058-.872.95-1.649 1.981-1.462 1.942-1.969 2.587-2.902 3.689-.302.357-.549.775-.549.929 0 .154-.317.609-.706 1.011-1.173 1.214-1.804 2.054-1.804 2.4 0 .181-.141.242-.313.135-.173-.107-.314.026-.314.295 0 .269-.141.489-.314.489-.172 0-.314.151-.314.335 0 .454-2.107 3.235-3.686 4.863-.215.222-.392.556-.392.741 0 .184-.141.336-.314.336-.172 0-.313.178-.313.395 0 .218-.353.776-.785 1.241-.431.466-.784.929-.784 1.031 0 .102-.318.507-.706.9a21.212 21.212 0 0 0-1.49 1.761c-.431.575-.961 1.225-1.177 1.444-.215.219-.392.486-.392.592 0 .107-.317.522-.706.924-1.025 1.062-1.954 2.22-1.789 2.232.078.005-.211.398-.642.873-1.679 1.848-1.875 2.097-1.647 2.097.129.001-.153.335-.627.743-.475.408-.863.85-.863.982s-.304.504-.676.826c-.371.323-.572.586-.446.586.126 0-.17.401-.658.891a17.35 17.35 0 0 0-1.514 1.767 20.35 20.35 0 0 1-1.48 1.777c-.469.494-.751.899-.627.899.123 0-.164.334-.638.742-.475.408-.863.877-.863 1.041 0 .165-.318.587-.706.939-.826.748-1.804 1.918-1.804 2.158 0 .092-.318.493-.706.89-1.246 1.274-2.431 2.689-2.431 2.901 0 .113-.494.686-1.098 1.273-.604.586-1.098 1.169-1.098 1.295 0 .127-.275.428-.611.67-.336.242-.539.556-.452.697.087.141-.062.256-.331.256s-.489.181-.489.402c0 .22-.282.604-.627.853-.345.249-.628.572-.628.719 0 .387-.835 1.164-1.251 1.164-.195 0-.274.129-.176.288.098.159-.195.582-.651.941s-.733.653-.614.653c.118 0-.145.334-.586.742-.44.408-.8.842-.8.966 0 .123-.635.859-1.412 1.636-.776.776-1.412 1.468-1.412 1.538 0 .07-.352.517-.782.995-1.481 1.644-2.354 2.751-2.354 2.986-.001.129-.213.235-.471.235-.259 0-.471.111-.471.248 0 .136-.565.872-1.255 1.634-.69.763-1.255 1.498-1.255 1.635 0 .136-.22.248-.489.248s-.413.123-.32.274c.094.151-.18.537-.608.859-.429.321-.779.702-.779.846 0 .374-.834 1.158-1.232 1.158a.338.338 0 0 0-.336.338c0 .187-.636.974-1.412 1.751-.777.776-1.412 1.468-1.412 1.538 0 .184-1.409 1.742-4 4.422-1.251 1.294-2.275 2.483-2.275 2.642 0 .159-.151.289-.336.289-.365 0-1.232.773-1.232 1.098 0 .326-.867 1.098-1.233 1.098a.337.337 0 0 0-.336.336c0 .443-.801 1.233-1.251 1.233-.195 0-.282.117-.194.259.088.143-.327.719-.923 1.28-.596.562-1.083 1.151-1.083 1.31 0 .159-.235.288-.523.288-.287 0-.44.083-.34.183.101.101-.652 1.019-1.673 2.039-1.021 1.021-1.856 1.998-1.856 2.17 0 .173-.151.314-.336.314-.185 0-.538.202-.784.448-.247.247-.449.6-.449.785a.337.337 0 0 1-.336.336c-.185 0-.537.201-.784.448-.246.246-.448.599-.448.784 0 .185-.22.336-.489.336s-.402.142-.295.314c.106.173-.027.314-.296.314-.269 0-.489.151-.489.336 0 .185-.201.538-.448.784-.246.247-.599.448-.784.448a.338.338 0 0 0-.336.337c0 .184-.202.537-.449.784-.246.246-.599.448-.784.448a.337.337 0 0 0-.336.336c0 .185-.202.538-.448.785-.247.246-.6.448-.785.448a.337.337 0 0 0-.336.336c0 .185-.201.538-.448.784-.246.247-.599.448-.784.448a.337.337 0 0 0-.336.336c0 .185-.202.538-.448.785-.247.246-.6.448-.785.448a.337.337 0 0 0-.336.336c0 .434-.798 1.233-1.232 1.233a.338.338 0 0 0-.337.336c0 .365-.772 1.232-1.098 1.232-.325 0-1.098.867-1.098 1.233a.337.337 0 0 1-.336.336c-.185 0-.538.202-.784.448-.247.247-.448.599-.448.784a.33.33 0 0 1-.322.336c-.177 0-1.15.848-2.163 1.883-1.013 1.035-2.006 1.882-2.207 1.882-.201 0-.293.116-.206.258.189.305-.911 1.311-1.433 1.311-.199 0-.28.082-.179.183.186.186-.862 1.385-1.21 1.385-.104 0-.468.353-.807.785-.339.431-.827.784-1.083.784-.257 0-.395.116-.307.258.178.288-.899 1.311-1.381 1.311-.171 0-.31.151-.31.336 0 .434-.798 1.232-1.233 1.232-.184 0-.336.212-.336.471s-.12.47-.268.47c-.148 0-1.145.848-2.216 1.883-1.071 1.035-2.088 1.882-2.26 1.882-.172 0-.225.141-.118.314.106.172.037.314-.154.314s-.674.353-1.074.784c-.4.431-.887.784-1.083.784-.196 0-.356.212-.356.471s-.212.47-.471.47-.47.142-.47.314c0 .173-.22.314-.489.314s-.418.116-.33.258c.178.288-.899 1.311-1.381 1.311-.171 0-.31.151-.31.336 0 .361-.771 1.232-1.091 1.232-.107 0-.521.353-.921.784-.4.432-.895.785-1.101.785-.207 0-.288.141-.181.313.106.173.073.314-.075.314s-.857.565-1.575 1.255c-.719.69-1.453 1.255-1.632 1.255-.179 0-.326.212-.326.471 0 .258-.122.47-.27.47-.148 0-.794.494-1.434 1.098-.64.604-1.232 1.098-1.314 1.098-.082 0-.476.353-.876.785-.4.431-.826.784-.947.784-.122 0-.687.494-1.256 1.098-.57.604-1.132 1.098-1.249 1.098-.118 0-.541.353-.94.784-.4.432-.824.785-.942.785-.117 0-.541.353-.941.784-.399.431-.895.784-1.101.784-.206 0-.303.116-.216.258.149.24-.864 1.311-1.239 1.311-.092 0-.495.353-.895.784-.399.432-.966.784-1.258.784-.292 0-.46.116-.372.258.148.24-.864 1.311-1.239 1.311-.093 0-.496.353-.895.784-.4.432-.836.785-.969.785s-.569.353-.969.784c-.399.431-.811.784-.913.784-.103 0-.514.353-.914.785-.4.431-.836.784-.969.784s-.569.353-.968.784c-.4.432-.824.785-.942.785-.117 0-.541.353-.941.784-.4.431-.875.784-1.055.784a.322.322 0 0 0-.329.314c0 .173-.212.314-.471.314a.471.471 0 0 0-.47.47.472.472 0 0 1-.471.471c-.259 0-.47.141-.47.314a.322.322 0 0 1-.329.313c-.181 0-.656.353-1.056.785-.399.431-.823.784-.941.784s-.541.353-.941.784c-.4.432-.966.785-1.258.785-.293 0-.46.116-.373.257.141.229-.856 1.311-1.207 1.311-.076 0-.518.353-.984.785-.465.431-1.061.784-1.323.784-.263 0-.388.089-.279.198.231.231-1.127 1.37-1.633 1.37-.189 0-.343.212-.343.471a.472.472 0 0 1-.471.471c-.258 0-.47.141-.47.313a.322.322 0 0 1-.329.314c-.181 0-.656.353-1.056.784-.399.432-.887.785-1.083.785-.195 0-.356.141-.356.313 0 .173-.196.314-.437.314-.24 0-.518.212-.617.471-.1.259-.397.47-.661.47-.265 0-.481.142-.481.314 0 .173-.212.314-.47.314a.472.472 0 0 0-.471.47.472.472 0 0 1-.471.471c-.258 0-.47.141-.47.314 0 .172-.291.313-.646.313-.355 0-.574.116-.487.258.211.342-.939 1.311-1.556 1.311-.267 0-.392.151-.279.335.114.184-.089.412-.452.507-.362.095-.659.297-.659.45 0 .152-.148.277-.328.277-.181 0-.656.353-1.056.784-.4.431-.966.784-1.258.784-.293 0-.451.131-.352.291.099.161-.104.382-.452.492-.348.111-.632.332-.632.493a.296.296 0 0 1-.298.293c-.163 0-.678.353-1.143.784-.466.432-.974.785-1.13.785-.155 0-.61.353-1.009.784-.4.431-.982.784-1.293.784-.311 0-.476.09-.366.199.192.192-1.089 1.37-1.491 1.37-.11 0-.58.353-1.045.784-.465.432-1.032.784-1.26.784-.228 0-.327.142-.22.314.107.173-.031.314-.305.314a.79.79 0 0 0-.68.47c-.099.259-.377.471-.617.471-.241 0-.437.141-.437.314 0 .172-.202.314-.45.314-.247 0-.55.317-.673.704-.123.388-.398.847-.612 1.02-.678.549-1.388 4.55-.808 4.55.191 0 .349.459.352 1.02.004.673.27 1.27.784 1.758.429.406.779 1.006.779 1.333 0 .327.212.595.471.595s.471.212.471.471c0 .258.141.47.313.47.173 0 .314.282.314.628 0 .345.126.627.28.627.154 0 .368.353.476.784.109.432.336.785.505.785.169 0 .308.353.308.784 0 .431.139.784.31.784.17 0 .4.565.51 1.255.111.69.324 1.255.475 1.255.15 0 .273.494.273 1.098 0 .604.141 1.098.314 1.098.173 0 .314.62.314 1.378 0 .936.151 1.437.47 1.559.4.154.471 1.287.471 7.53 0 6.242-.071 7.376-.471 7.529-.322.124-.47.628-.47 1.602 0 .782-.141 1.422-.314 1.422-.173 0-.314.564-.314 1.255 0 .69-.125 1.255-.279 1.255-.153 0-.371.494-.484 1.098-.114.604-.341 1.098-.506 1.098-.165 0-.299.353-.299.784 0 .431-.142.784-.314.784-.173 0-.314.287-.314.638 0 .35-.212.718-.47.817-.259.1-.471.455-.471.789 0 .335-.353.961-.784 1.393-.432.431-.785.989-.785 1.24s-.141.457-.313.457c-.173 0-.314.211-.314.47s-.109.471-.242.471c-.134 0-.509.494-.834 1.098-.325.604-.781 1.098-1.013 1.098-.231 0-.386.117-.342.26.101.337-4.637 5.073-5.077 5.073-.184 0-.335.212-.335.471s-.212.47-.471.47-.47.142-.47.314c0 .173-.283.314-.628.314-.348 0-.627.209-.627.47a.472.472 0 0 1-.471.471c-.259 0-.47.141-.47.314 0 .172-.306.313-.68.313-.374 0-.598.083-.497.183.223.224-.895 1.386-1.333 1.386-.607 0-.393 7.428.235 8.18.302.361.796.949 1.098 1.306.302.357.549.788.549.957 0 .169.262.535.583.814.32.279.683.825.805 1.214.123.388.355.706.516.706.16 0 .292.211.292.47s.126.471.28.471c.154 0 .368.353.476.784.109.431.336.784.505.784.169 0 .308.152.308.336 0 .185.176.533.392.774.931 1.038 1.176 1.393 1.176 1.701 0 .179.126.327.28.327.154 0 .368.353.477.784.108.431.335.784.504.784.17 0 .308.151.308.336 0 .185.177.533.392.774.88.981 1.109 1.321 1.303 1.932.112.352.482.892.823 1.201.341.308.619.733.619.944 0 .211.211.558.467.771.257.213.39.513.296.666-.095.153.048.278.317.278.419 0 .558.334.468 1.122-.011.099.299.458.69.796.39.339.744.855.787 1.147.043.293.227.581.409.642.182.061.331.31.331.555 0 .244.132.444.293.444.161 0 .392.318.515.706.123.388.465.918.761 1.176.295.259.638.789.76 1.177.123.388.355.706.516.706.161 0 .292.212.292.47 0 .259.132.471.293.471.161 0 .393.318.515.706.123.388.465.917.761 1.176.296.259.638.789.76 1.177.123.388.355.706.516.706.161 0 .293.151.293.336 0 .185.176.533.392.773.727.811 1.017 1.239 1.64 2.42.341.647.729 1.177.862 1.177.134 0 .243.211.243.47s.164.471.366.471c.201 0 .274.091.162.203-.112.112.041.43.34.706.299.276.813 1.032 1.142 1.679.329.647.702 1.176.829 1.176.126 0 .316.343.421.763.106.419.433 1.004.728 1.299.295.295.57.761.61 1.036.041.274.222.548.404.609.182.061.331.25.331.42 0 .171.177.507.392.748.931 1.038 1.177 1.393 1.177 1.7 0 .18.138.327.307.327.17 0 .397.353.505.785.108.431.323.784.477.784.153 0 .279.151.279.336 0 .185.177.533.393.774.93 1.038 1.176 1.393 1.176 1.7 0 .18.138.327.308.327.169 0 .396.353.504.785.109.431.323.784.477.784.154 0 .28.151.28.336 0 .185.176.533.392.773.727.811 1.017 1.239 1.64 2.42.341.647.729 1.177.862 1.177.134 0 .243.205.243.456s.318.785.706 1.187c.388.402.975 1.255 1.304 1.897.329.641.717 1.166.863 1.166.145 0 .264.194.264.432s.21.606.467.82c.257.213.399.498.316.633-.084.135.059.326.317.425.258.099.469.467.469.817 0 .351.141.637.313.637.173 0 .314.212.314.471s.158.435.351.392c.192-.043.397.201.453.543.057.342.252.672.434.732.182.061.331.311.331.555 0 .245.138.445.308.445.169 0 .396.353.504.784.108.431.323.784.477.784.154 0 .279.22.279.489s.127.411.281.316c.154-.095.368.179.476.609.108.43.335.782.504.782.17 0 .308.212.308.471s.139.47.308.47c.169 0 .396.353.504.785.109.431.323.784.477.784.154 0 .28.151.28.336 0 .185.176.533.392.774.931 1.038 1.176 1.393 1.176 1.7 0 .18.15.327.333.327.182 0 .26.116.173.257-.087.141.116.455.452.697.336.242.611.657.611.923 0 .265.353.863.784 1.329.432.465.785.986.785 1.159 0 .172.353.666.784 1.097.431.431.784 1.009.784 1.284 0 .275.353.827.785 1.227.431.4.784 1.028.784 1.397 0 .368.161.67.357.67.483 0 1.189.969 1.201 1.647.006.302.152.549.324.549.173 0 .314.211.314.47s.132.471.293.471c.16 0 .371.247.468.549.097.302.53.959.963 1.46.432.502.786 1.102.786 1.334 0 .232.141.422.313.422.173 0 .314.151.314.336 0 .185.177.533.392.773.931 1.038 1.177 1.393 1.177 1.701 0 .18.126.327.28.327.153 0 .368.353.476.784.108.431.335.784.505.784.169 0 .307.152.307.337 0 .184.177.532.393.773.931 1.038 1.176 1.393 1.176 1.701 0 .18.132.327.293.327.161 0 .391.311.512.691.256.808.89 1.505 1.369 1.505.185 0 .336.212.336.47 0 .262.279.471.627.471.345 0 .628.141.628.314 0 .186 1.15.313 2.823.313s2.824-.127 2.824-.313c0-.173.267-.314.594-.314.326 0 .675-.212.774-.471.099-.258.397-.47.661-.47s.481-.141.481-.314c0-.173.361-.314.802-.314.49 0 .722-.131.596-.335-.114-.184.09-.412.452-.507.363-.094.659-.297.659-.449 0-.153.424-.277.942-.277.576 0 .91-.149.862-.385-.043-.212.24-.433.628-.492.388-.06.706-.239.706-.4 0-.161.423-.292.941-.292.577 0 .911-.149.863-.385-.044-.211.274-.435.705-.497.432-.062.919-.241 1.083-.399.164-.158.702-.288 1.195-.288.5 0 .813-.134.709-.304-.104-.168.205-.388.687-.49.482-.101 1.121-.317 1.42-.479.3-.163 1.049-.295 1.666-.295.667 0 1.042-.127.927-.314-.107-.172.061-.325.373-.339 1.28-.059 2.457-.345 2.555-.621.057-.162 1.01-.295 2.118-.295 1.107 0 2.013-.122 2.013-.271 0-.425 8.1-.747 12.572-.5 2.223.123 3.967.347 3.874.497-.094.151.677.274 1.713.274 1.035 0 1.962.129 2.059.287.097.157.742.381 1.432.498.69.117 1.175.341 1.078.498-.098.157.317.286.921.286.604 0 1.185.141 1.292.314.106.172.472.313.812.313.341 0 .7.212.8.471.099.259.426.47.726.47.816 0 2.558.948 2.352 1.28-.098.159.183.289.625.289.441 0 .802.125.802.277 0 .153.297.355.659.45.363.095.566.322.453.507-.122.196.061.335.439.335.355 0 .645.141.645.313 0 .173.212.314.471.314s.471.212.471.471.156.47.348.47c.378 0 4.992 4.626 6.208 6.226l.753.99h3.692c3.753 0 4.819-.156 4.508-.66-.096-.155.031-.281.282-.281.25 0 .537-.212.636-.471.099-.259.397-.47.661-.47s.48-.142.48-.314c0-.173.148-.314.329-.314.181 0 .656-.353 1.056-.784.399-.431.893-.784 1.098-.784.204 0 .698-.353 1.098-.785.399-.431.966-.784 1.258-.784.297 0 .44-.148.325-.335-.114-.184.089-.412.452-.507.362-.095.659-.297.659-.45 0-.152.29-.277.646-.277.355 0 .574-.116.486-.257-.181-.294.903-1.311 1.396-1.311.179 0 .652-.353 1.052-.785.4-.431.809-.784.91-.784.101 0 .564-.353 1.03-.784.465-.432.973-.785 1.129-.785.155 0 .61-.353 1.01-.784.399-.431.981-.784 1.292-.784.311 0 .476-.09.367-.199-.201-.2 1.096-1.37 1.519-1.37.125 0 .555-.353.955-.784.4-.432.945-.784 1.212-.784s.451-.145.408-.322c-.044-.177.345-.565.862-.863.518-.297.989-.647 1.046-.776.058-.13.305-.236.549-.236a.459.459 0 0 0 .445-.47c0-.259.211-.471.47-.471s.471-.141.471-.313c0-.173.211-.314.47-.314a.472.472 0 0 0 .471-.471c0-.259.212-.47.47-.47.259 0 .471-.142.471-.314 0-.173.291-.314.646-.314.378 0 .56-.139.439-.335-.114-.184.089-.412.452-.507.363-.095.659-.297.659-.449 0-.153.148-.277.329-.277.181 0 .656-.353 1.055-.785.4-.431.824-.784.942-.784.117 0 .541-.353.941-.784.4-.432.981-.785 1.292-.785.311 0 .476-.089.367-.198-.231-.231 1.127-1.37 1.633-1.37.189 0 .343-.212.343-.471s.212-.47.471-.47.47-.142.47-.314c0-.173.148-.314.329-.314.181 0 .656-.353 1.056-.784.399-.432.823-.785.941-.785s.541-.352.941-.784c.4-.431.815-.784.924-.784.186 0 1.369-.944 2.26-1.804.224-.216.558-.392.743-.392.184 0 .336-.122.336-.271 0-.149.335-.608.744-1.02.41-.412.845-1.209.967-1.771.122-.562.352-.942.51-.844.161.099.288-.511.288-1.376 0-1.091-.139-1.607-.47-1.734-.259-.099-.471-.446-.471-.77 0-.39-.656-.98-1.931-1.737-4.361-2.589-5.558-2.349-11.313 2.269-11.556 9.271-18.07 14.347-29.579 23.047-7.9 5.972-7.061 5.601-8.87 3.921-16.412-15.244-43.975-17.578-67.679-5.73-1.553.776-2.969 1.406-3.145 1.4-.177-.007-2.059-2.659-4.182-5.894a9754.702 9754.702 0 0 0-7.521-11.444c-2.014-3.059-8.039-12.229-13.388-20.379a26061.51 26061.51 0 0 0-14.431-21.964c-19.709-29.931-24.314-37.003-24.314-37.345 0-.18 1.191-1.441 2.646-2.803 5.61-5.248 9.003-10.248 13.058-19.242.962-2.135 2.413-7.671 3.092-11.8.726-4.414.322-14.059-.775-18.474-.99-3.989-3.001-9.39-4.402-11.819-1.024-1.778-1.291-1.479 6.675-7.475 3.897-2.933 7.807-5.909 8.69-6.613 18.471-14.732 20.817-16.642 29.997-24.416 52.521-44.476 101.277-96.291 142.079-150.994 1.802-2.415 1.945-2.472 3.726-1.478 2.8 1.563 7.911 3.427 11.842 4.319 17.397 3.949 35.547-1.507 48.554-14.595 1.858-1.87 3.504-3.4 3.658-3.4.153 0 4.35 2.674 9.327 5.943A15671.92 15671.92 0 0 0 306.51 29.5c2.674 1.752 6.98 4.578 9.568 6.28 2.589 1.702 7.318 4.801 10.51 6.887 3.192 2.086 15.898 10.441 28.236 18.567 12.337 8.126 23.101 15.2 23.921 15.719 1.801 1.142 1.8 1.119.242 4.095-12.01 22.936-9.641 51.647 5.616 68.071 1.681 1.808 2.177.738-4.314 9.312-20.49 27.071-40.237 51.016-62.48 75.765-31.982 35.585-67.119 69.842-105.314 102.678-9.112 7.833-10.041 9.428-7.626 13.092.339.515.618 1.254.619 1.642.001.417.195.706.473.706.259 0 .47.141.47.313 0 .173.358.314.795.314.436 0 .875.212.974.471.245.637 2.816.637 3.453 0 .258-.259.743-.471 1.075-.471.333 0 .605-.141.605-.314 0-.172.291-.313.646-.313.356 0 .559-.141.452-.314-.106-.173-.073-.314.074-.314s.873-.564 1.614-1.255c.74-.69 1.475-1.255 1.633-1.255.158 0 .287-.141.287-.313 0-.173.148-.314.329-.314.181 0 .656-.353 1.056-.784.399-.432.887-.785 1.083-.785.195 0 .356-.151.356-.336 0-.361.771-1.232 1.09-1.232.107 0 .522-.353.921-.785.4-.431.967-.784 1.259-.784.292 0 .46-.116.372-.258-.148-.239.864-1.31 1.239-1.31.093 0 .495-.353.895-.785.4-.431.896-.784 1.102-.784.206 0 .303-.116.215-.258-.211-.341.94-1.311 1.556-1.311.267 0 .399-.141.292-.313-.107-.173-.073-.314.075-.314s.857-.565 1.575-1.255 1.461-1.255 1.65-1.255c.19 0 .263-.132.164-.293-.1-.161.245-.544.766-.852.52-.307.946-.67.946-.805s.212-.246.471-.246a.472.472 0 0 0 .471-.471c0-.258.211-.47.47-.47s.471-.141.471-.314c0-.173.212-.314.47-.314a.472.472 0 0 0 .471-.47c0-.259.151-.471.335-.471.184 0 .801-.494 1.37-1.098.57-.604 1.195-1.098 1.391-1.098.195 0 .355-.151.355-.336 0-.362.771-1.233 1.091-1.233.106 0 .521-.353.921-.784.399-.431.805-.784.9-.784.096 0 .876-.706 1.734-1.569s1.725-1.568 1.927-1.568c.201 0 .294-.116.207-.258-.147-.237.861-1.311 1.229-1.311.087 0 .639-.494 1.225-1.098.587-.604 1.219-1.098 1.406-1.098.187 0 .34-.212.34-.471s.151-.47.335-.47c.184 0 .801-.494 1.37-1.098.57-.604 1.196-1.098 1.391-1.098a.348.348 0 0 0 .355-.337c0-.353.768-1.232 1.077-1.232.1 0 .872-.706 1.717-1.569.845-.862 1.7-1.568 1.9-1.568.199 0 .291-.116.204-.258-.179-.289.898-1.311 1.38-1.311.171 0 .311-.212.311-.471 0-.258.13-.47.29-.47.159 0 1.158-.847 2.219-1.882 1.062-1.036 2.069-1.883 2.239-1.883.169 0 .221-.141.114-.314-.106-.172-.071-.313.08-.313.15 0 1.353-1.059 2.672-2.353 1.32-1.294 2.555-2.353 2.744-2.353.19 0 .274-.116.186-.258-.178-.288.899-1.311 1.381-1.311.17 0 .31-.151.31-.336 0-.434.798-1.232 1.232-1.232a.338.338 0 0 0 .336-.337c0-.434.799-1.232 1.233-1.232.185 0 .336-.188.336-.418 0-.229.353-.606.784-.837.432-.231.785-.547.785-.703 0-.391.823-1.179 1.232-1.179a.337.337 0 0 0 .336-.336c0-.435.798-1.233 1.233-1.233a.337.337 0 0 0 .336-.336c0-.434.798-1.233 1.232-1.233a.338.338 0 0 0 .337-.336c0-.365.772-1.232 1.098-1.232.325 0 1.098-.867 1.098-1.233 0-.185.151-.336.336-.336.434 0 1.232-.798 1.232-1.232 0-.185.152-.336.336-.336.435 0 1.233-.799 1.233-1.233 0-.185.151-.336.336-.336.409 0 1.233-.788 1.233-1.18 0-.155.352-.472.784-.702.431-.231.784-.548.784-.703 0-.392.824-1.18 1.233-1.18a.337.337 0 0 0 .336-.336c0-.434.798-1.232 1.232-1.232a.338.338 0 0 0 .336-.337c0-.434.799-1.232 1.233-1.232a.337.337 0 0 0 .336-.336c0-.434.798-1.233 1.233-1.233.184 0 .3-.108.257-.241-.043-.132 1.228-1.556 2.824-3.164 1.596-1.607 2.902-3.051 2.902-3.209 0-.158.211-.288.47-.288s.471-.128.471-.285c0-.156.635-.938 1.412-1.737.776-.799 1.411-1.528 1.411-1.62 0-.298.887-1.063 1.233-1.063a.338.338 0 0 0 .336-.337c0-.434.798-1.232 1.233-1.232.184 0 .3-.112.257-.249-.043-.137 1.012-1.372 2.344-2.745 3.207-3.306 4.637-4.917 4.637-5.224 0-.139.22-.253.489-.253s.413-.123.319-.274c-.093-.151.181-.537.609-.859.428-.321.779-.702.779-.846 0-.374.834-1.158 1.232-1.158a.337.337 0 0 0 .336-.336c0-.434.799-1.233 1.233-1.233.185 0 .303-.105.264-.235-.067-.215 1.047-1.534 3.288-3.896.474-.501.862-.988.862-1.084 0-.096.972-1.15 2.16-2.342 1.187-1.193 2.1-2.168 2.027-2.168-.073 0 .155-.309.507-.687.352-.377.64-.801.64-.941 0-.14.212-.254.47-.254.259 0 .471-.181.471-.402 0-.22.282-.605.627-.853.345-.249.628-.573.628-.719 0-.379.832-1.164 1.232-1.164a.333.333 0 0 0 .336-.328c0-.18.318-.656.706-1.058.975-1.009 1.804-2.039 1.804-2.24 0-.093.671-.846 1.49-1.674 1.878-1.898 3.216-3.423 3.216-3.666 0-.103.635-.805 1.412-1.56.776-.754 1.412-1.454 1.412-1.555 0-.1.317-.511.706-.913.987-1.022 1.803-2.039 1.803-2.247 0-.313.886-1.072 1.251-1.072.196 0 .279-.124.186-.275-.094-.15.172-.531.59-.844.418-.314.689-.685.603-.824-.086-.139-.007-.253.175-.253.183 0 .333-.163.333-.361 0-.198.494-.84 1.098-1.427.604-.586 1.098-1.136 1.098-1.222 0-.086.317-.478.706-.872a21.3 21.3 0 0 0 1.49-1.758 32.183 32.183 0 0 1 1.569-1.905c1.324-1.458 1.882-2.178 1.882-2.429 0-.133.282-.444.627-.693.345-.249.628-.633.628-.854 0-.22.151-.401.336-.401.397 0 1.261-.811 1.241-1.165-.008-.136.199-.495.459-.799.261-.304.474-.632.474-.729 0-.312.886-1.072 1.251-1.072.195 0 .278-.123.185-.274-.093-.151.172-.531.59-.845.418-.313.689-.684.603-.823-.086-.14-.007-.254.176-.254.182 0 .332-.162.332-.36 0-.199.494-.841 1.098-1.427.604-.587 1.098-1.167 1.098-1.29s.353-.604.784-1.069c.432-.465.785-.929.785-1.031 0-.102.317-.513.705-.915.947-.98 1.804-2.037 1.804-2.225 0-.083.565-.752 1.255-1.484.69-.733 1.255-1.479 1.255-1.657 0-.179.282-.528.628-.777.345-.249.627-.567.627-.708 0-.141.318-.608.706-1.039 1.64-1.821 1.793-2.018 1.569-2.018-.13 0 .152-.335.627-.743s.863-.88.863-1.049c0-.169.247-.599.549-.955.302-.356 1.036-1.243 1.63-1.97.595-.728 1.266-1.507 1.491-1.731.224-.225.408-.496.408-.603 0-.106.353-.546.784-.977.432-.432.785-.99.785-1.241 0-.251.117-.456.261-.456.143 0 .449-.353.68-.785.231-.431.616-.784.856-.784s.362-.12.271-.266c-.09-.147.113-.564.452-.928.34-.364.617-.745.617-.846 0-.102.353-.538.784-.969.432-.431.785-.917.785-1.08 0-.468 1.026-1.543 1.307-1.369.14.087.17-.062.067-.33-.122-.32-.007-.486.336-.486.288 0 .449-.12.358-.267-.09-.146.113-.564.452-.928.339-.364.617-.744.617-.846 0-.101.353-.537.784-.968.432-.432.785-.959.785-1.172 0-.213.282-.59.627-.839.345-.249.627-.568.627-.71 0-.309.463-.906 1.726-2.227.926-.969.943-1.045 1.046-4.845l.104-3.86-1.124-1.06c-.618-.583-1.124-.974-1.124-.869 0 .105-1.165-.991-2.588-2.435-1.424-1.445-2.553-2.741-2.51-2.879.043-.139-.111-.252-.343-.252-.232 0-.687-.494-1.012-1.098-.326-.604-.701-1.098-.834-1.098s-.242-.212-.242-.471-.142-.471-.314-.471c-.173 0-.314-.353-.314-.784 0-.488-.178-.784-.471-.784-.292 0-.47-.297-.47-.785 0-.431-.141-.784-.314-.784-.172 0-.314-.287-.314-.637 0-.351-.211-.719-.47-.818-.259-.099-.471-.44-.471-.756s-.141-.663-.313-.769c-.173-.107-.314-.68-.314-1.274 0-.593-.135-1.079-.3-1.079-.164 0-.392-.496-.506-1.102-.114-.606-.332-1.179-.485-1.273-.153-.095-.278-1.011-.278-2.036 0-1.025-.122-1.864-.271-1.864-.444 0-.736-6.946-.496-11.789.123-2.481.346-4.434.495-4.342.15.093.272-.758.272-1.889 0-1.132.123-2.058.273-2.058.15 0 .348-.666.44-1.48.092-.814.322-1.532.511-1.595.19-.063.345-.589.345-1.168s.141-1.141.314-1.247c.172-.107.313-.614.313-1.127 0-.539.199-1.008.471-1.113.265-.102.47-.569.47-1.069 0-.489.142-.977.314-1.083.173-.107.314-.539.314-.96 0-.472.181-.766.47-.766.293 0 .471-.296.471-.784 0-.432.141-.785.314-.785.172 0 .314-.353.314-.784 0-.488.177-.784.47-.784s.471-.297.471-.785c0-.431.126-.784.279-.784.154 0 .369-.353.477-.784.108-.432.335-.784.505-.784.169 0 .307-.212.307-.471s.141-.471.314-.471c.173 0 .314-.286.314-.637 0-.35.212-.719.47-.818.259-.099.471-.448.471-.774 0-.327.141-.594.314-.594.186 0 .313-1.151.313-2.824 0-1.673-.127-2.823-.313-2.823-.173 0-.314-.19-.314-.423 0-.541-1.061-1.773-1.527-1.773-.196 0-.355-.212-.355-.471 0-.261-.279-.47-.628-.47-.345 0-.627-.125-.627-.278 0-.152-.297-.354-.659-.449-.363-.095-.566-.323-.452-.507.121-.196-.062-.335-.439-.335-.356 0-.646-.141-.646-.314 0-.172-.283-.314-.628-.314-.348 0-.627-.209-.627-.47 0-.262-.279-.471-.628-.471-.345 0-.627-.141-.627-.313 0-.173-.178-.314-.396-.314-.217 0-.776-.353-1.241-.785-.465-.431-1.003-.784-1.195-.784-.193 0-.547-.176-.788-.392-.809-.726-1.238-1.017-2.4-1.63-.637-.335-1.087-.723-1.001-.862.086-.139-.135-.253-.49-.253s-.646-.141-.646-.314c0-.172-.205-.314-.455-.314s-.568-.184-.706-.409c-.138-.225-.784-.656-1.435-.959-.651-.303-1.101-.683-1.001-.846.101-.162-.108-.295-.463-.295-.355 0-.646-.142-.646-.314 0-.173-.282-.314-.627-.314-.349 0-.628-.209-.628-.47 0-.262-.279-.471-.627-.471-.345 0-.628-.141-.628-.314 0-.172-.216-.313-.48-.313s-.562-.212-.661-.471c-.1-.259-.377-.471-.618-.471-.24 0-.437-.141-.437-.313 0-.173-.282-.314-.627-.314-.349 0-.628-.209-.628-.471 0-.261-.279-.47-.627-.47-.345 0-.628-.141-.628-.314 0-.172-.216-.314-.48-.314s-.562-.211-.661-.47c-.099-.259-.377-.471-.618-.471-.24 0-.437-.141-.437-.314 0-.172-.282-.313-.627-.313-.349 0-.628-.209-.628-.471 0-.261-.278-.47-.627-.47-.345 0-.628-.142-.628-.314 0-.173-.267-.314-.593-.314-.327 0-.676-.212-.775-.471a.788.788 0 0 0-.679-.47c-.275 0-.412-.141-.305-.314.106-.172-.037-.314-.318-.314s-.708-.176-.949-.392c-1.088-.976-1.405-1.176-1.857-1.176-.267 0-.484-.141-.484-.314 0-.172-.216-.314-.481-.314-.264 0-.561-.211-.661-.47-.099-.259-.377-.471-.617-.471-.241 0-.437-.141-.437-.314 0-.172-.283-.313-.628-.313-.348 0-.627-.209-.627-.471 0-.261-.279-.47-.628-.47-.345 0-.627-.142-.627-.314 0-.173-.205-.314-.455-.314s-.568-.184-.706-.409c-.138-.225-.784-.657-1.435-.959-.651-.303-1.101-.684-1.001-.846.101-.163-.108-.296-.463-.296-.355 0-.646-.141-.646-.313 0-.173-.282-.314-.628-.314-.348 0-.627-.209-.627-.471 0-.261-.279-.47-.627-.47-.346 0-.628-.125-.628-.277 0-.153-.296-.355-.659-.45-.363-.095-.566-.323-.452-.507.121-.196-.061-.335-.439-.335-.355 0-.646-.141-.646-.314 0-.172-.282-.313-.627-.313-.349 0-.628-.21-.628-.471s-.279-.471-.627-.471c-.345 0-.628-.141-.628-.313 0-.173-.216-.314-.48-.314s-.562-.212-.661-.471c-.1-.258-.377-.47-.618-.47-.24 0-.437-.141-.437-.314 0-.172-.222-.314-.493-.314s-.69-.176-.93-.392c-.809-.725-1.238-1.017-2.401-1.629-.636-.336-1.087-.724-1.001-.863.086-.139-.134-.253-.49-.253-.355 0-.646-.141-.646-.314 0-.172-.216-.313-.48-.313s-.562-.212-.661-.471c-.099-.259-.448-.471-.775-.471-.326 0-.593-.124-.593-.277 0-.152-.297-.354-.659-.449-.363-.095-.566-.323-.453-.507.122-.196-.061-.335-.439-.335-.355 0-.645-.141-.645-.314 0-.172-.283-.314-.628-.314-.349 0-.627-.209-.627-.47 0-.262-.279-.471-.628-.471-.345 0-.627-.124-.627-.277 0-.152-.297-.355-.659-.449-.363-.095-.566-.323-.452-.508.121-.195-.061-.334-.439-.334-.356 0-.646-.142-.646-.314 0-.173-.283-.314-.628-.314-.348 0-.627-.209-.627-.47 0-.262-.279-.471-.628-.471-.345 0-.627-.125-.627-.277 0-.153-.297-.355-.659-.45-.363-.095-.566-.322-.452-.507.126-.204-.107-.335-.596-.335-.442 0-.803-.124-.803-.277 0-.152-.297-.354-.659-.449-.363-.095-.566-.323-.452-.507.121-.196-.061-.335-.439-.335-.355 0-.646-.141-.646-.314 0-.173-.267-.314-.594-.314-.327 0-.675-.212-.774-.47-.1-.259-.397-.471-.661-.471-.265 0-.481-.141-.481-.314 0-.172-.178-.313-.395-.313-.218 0-.776-.353-1.241-.785-.466-.431-1.064-.784-1.331-.784-.266 0-.484-.141-.484-.314 0-.172-.216-.313-.48-.313-.265 0-.553-.188-.641-.418-.088-.229-.648-.608-1.245-.842-.597-.235-1.085-.612-1.085-.838 0-.227-.282-.412-.627-.412-.345 0-.628-.141-.628-.314 0-.173-.216-.314-.48-.314s-.562-.211-.661-.47c-.099-.259-.448-.471-.775-.471-.326 0-.594-.141-.594-.314 0-.172-.211-.313-.47-.313a.472.472 0 0 1-.471-.471c0-.261-.279-.471-.627-.471-.345 0-.628-.141-.628-.313 0-.173-.216-.314-.48-.314s-.562-.212-.661-.471c-.099-.258-.448-.47-.775-.47-.326 0-.593-.125-.593-.277 0-.153-.297-.355-.659-.45-.363-.095-.566-.323-.453-.507.122-.196-.061-.335-.439-.335-.355 0-.645-.141-.645-.313 0-.173-.217-.314-.481-.314s-.562-.212-.661-.471c-.099-.259-.448-.47-.774-.47-.327 0-.594-.142-.594-.314 0-.173-.216-.314-.481-.314-.264 0-.561-.212-.661-.47-.099-.259-.377-.471-.617-.471-.241 0-.437-.141-.437-.314 0-.172-.222-.313-.493-.313-.272 0-.69-.177-.931-.393-1.037-.93-1.392-1.176-1.698-1.176-.178 0-.5-.282-.716-.628-.498-.798-8.084-.986-8.084-.2"/>
  <path fill="#fbe463" d="M283.765 53.054c-1.724 1.17-8.502 4.447-12.079 5.839-11.05 4.302-26.359 6.412-37.019 5.105a186.577 186.577 0 0 0-4.392-.481l-2.04-.192-5.018 6.376c-8.443 10.729-21.981 26.79-23.236 27.566-1.453.897-4.366 1-5.592.197-1.257-.823-1.492-.69-4.052 2.288-2.689 3.129-2.692 3.136-1.725 4.493.886 1.244 1.128 4.045.483 5.569-1.939 4.574-47.519 51.017-70.344 71.676a2558.737 2558.737 0 0 0-5.014 4.552c-2.482 2.266-16.016 14.1-18.854 16.487a9427.96 9427.96 0 0 0-5.961 5.021c-5.39 4.545-15.237 12.553-20.804 16.921l-4.799 3.764.159 1.883c.087 1.035.329 3.364.537 5.176 1.649 14.374-2.215 32.691-9.759 46.257-2.299 4.133-2.597 2.97 2.9 11.312a21373.28 21373.28 0 0 1 18.433 28.078c7.636 11.647 14.121 21.423 14.41 21.724.5.521.711.511 4.283-.209 12.769-2.572 27.472-2.295 40.149.758 3.316.798 9.339 2.802 12.794 4.257l2.44 1.028 1.473-1.125c2.733-2.086 11.511-8.989 13.882-10.917 1.294-1.052 4.258-3.454 6.588-5.337 38.714-31.296 79.802-69.893 114.535-107.591 17.342-18.823 43.794-49.698 52.681-61.49.431-.573 2.549-3.268 4.705-5.989 5.616-7.086 5.165-5.953 3.714-9.335-6.725-15.676-8.485-37.053-4.455-54.11.618-2.615 3.459-.436-24.131-18.508-5.248-3.437-14.661-9.626-25.167-16.545-8.147-5.366-8.326-5.449-9.725-4.498"/>
  <path fill="#070504" d="M284.027 39.219c-.545.121-2.381 1.07-4.078 2.108-16.069 9.832-32.51 13.012-50.564 9.781-5.125-.917-6.555-.423-9.343 3.229-3.822 5.007-14.17 17.841-20.819 25.82-4.026 4.831-7.51 9.238-7.742 9.794-2.116 5.061 4.069 10.149 8.594 7.069 1.348-.918 11.982-13.509 21.971-26.016 6.992-8.755 5.938-7.984 10.111-7.395 15.409 2.176 33.353-1.126 48.256-8.88 5.544-2.885 4.349-3.054 11.454 1.619 3.309 2.176 8.311 5.459 11.116 7.295 2.806 1.835 7.888 5.177 11.294 7.425 3.407 2.247 11.326 7.463 17.599 11.589l11.406 7.502-.174 1.117c-.096.614-.456 2.669-.799 4.567-3.081 17.005-1.377 35.162 4.681 49.882.71 1.726 1.357 3.35 1.437 3.608.21.678-12.803 17.183-26.218 33.253-17.355 20.791-37.836 43.531-55.095 61.173-12.734 13.016-14.244 14.53-21.951 22.019a1121.406 1121.406 0 0 1-62.575 56.44c-10.349 8.66-24.811 20.261-32.54 26.103-.253.192-1.584-.196-3.922-1.142-15.881-6.427-35.006-8.115-52.008-4.589-1.64.339-3.213.619-3.497.622-.327.002-2.153-2.488-5.001-6.82l-15.822-24.078c-6.235-9.49-12.702-19.33-14.371-21.866-3.298-5.011-3.401-5.332-2.281-7.105 6.716-10.64 10.958-26.515 10.952-40.99-.002-5.498-.172-7.876-.912-12.76l-.174-1.152 7.788-6.232c41.365-33.1 79.051-68.526 113.504-106.696 4.8-5.319 5.03-5.687 5.027-8.059-.004-4.574-5.097-7.503-8.743-5.029-1.2.815-1.506 1.134-9.317 9.718-18.873 20.742-43.362 45.012-65.389 64.805-6.434 5.781-9.379 8.395-11.129 9.876-.815.69-3.374 2.883-5.686 4.874-9.241 7.956-26.398 21.963-35.059 28.622-3.247 2.496-3.901 4.294-3.054 8.386 1.704 8.224 1.771 19.125.162 26.51-1.55 7.113-2.951 11.346-5.613 16.959-1.696 3.576-2.489 5.019-5.125 9.335-2.445 4.003-2.456 3.975 7.029 18.384 4.208 6.394 9.134 13.885 10.946 16.646 19.105 29.115 24.135 36.703 24.936 37.62 1.859 2.126 3.591 2.349 8.619 1.108 12.504-3.088 24.723-3.436 36.563-1.043 4.453.901 5.893 1.306 10.509 2.956 2.524.902 2.694.972 7.216 2.999 5.075 2.275 5.173 2.242 14.118-4.731 72.944-56.864 137.599-121.443 194.268-194.037 7.852-10.058 7.938-10.291 5.612-15.1-7.963-16.468-9.667-35.434-4.898-54.547 1.704-6.83 1.592-6.997-9.614-14.326a13741.968 13741.968 0 0 1-25.996-17.047c-2.674-1.759-7.121-4.68-9.882-6.491-2.761-1.811-8.594-5.646-12.962-8.521-10.017-6.594-10.282-6.721-12.815-6.161m-23.709 56.393c-13.558 13.558-14.043 14.084-14.043 15.228 0 2.325 1.791 4.679 4.458 5.858 2.119.937 2.739.568 8.086-4.823 2.5-2.519 4.686-4.581 4.858-4.581.172 0 8.317 8.001 18.1 17.78 9.783 9.779 18.134 17.99 18.558 18.247 2.737 1.661 8.887-4.194 7.902-7.523-.12-.407-8.353-8.887-18.294-18.846l-18.076-18.106 4.797-4.833c5.958-6.002 6.366-7.457 2.973-10.605-3.835-3.557-3.085-4.031-19.319 12.204m-34.011 34.035c-13.471 13.489-13.573 13.619-12.544 15.989.645 1.486 41.509 42.186 42.629 42.458 2.029.492 2.971-.281 15.236-12.505 11.483-11.444 12.607-12.694 12.607-14.017 0-2.743-4.381-6.431-6.721-5.658-.62.204-4.174 3.528-9.905 9.261-4.916 4.919-9.08 8.921-9.254 8.895-.174-.026-2.993-2.778-6.266-6.116l-5.95-6.068 5.087-5.121 5.088-5.122v-1.581c0-2.737-3.179-5.503-5.651-4.916-.436.104-3.032 2.418-5.88 5.243l-5.099 5.057-6.194-6.193-6.193-6.193 9.097-9.101 9.096-9.1v-1.695c0-2.726-2.976-5.798-5.638-5.82-1.227-.011-1.443.186-13.545 12.303m-26.278 26.672c-2.563 1.466-2.869 2.576-2.091 7.603.213 1.38.452 3.003.529 3.607.078.604.34 2.298.581 3.765.242 1.467.596 3.726.788 5.02.191 1.294.562 3.694.823 5.333 1.399 8.784 1.496 9.726 1.005 9.726-.228 0-4.013-3.614-8.411-8.032-4.399-4.417-8.41-8.212-8.914-8.433-2.923-1.283-8.843 4.444-7.807 7.552.221.663 38.129 39.005 41.302 41.775 2.284 1.994 6.47.067 8.367-3.854 1.31-2.706 1.321-2.688-5.779-9.847-7.075-7.135-6.954-6.943-7.144-11.318l-.102-2.353 1.412.057c1.353.055 2.604.278 6.745 1.203 1.036.232 2.73.586 3.765.788 1.035.202 2.738.565 3.785.807 1.046.241 2.165.439 2.487.439.322 0 1.019.129 1.549.288.53.158 2.093.522 3.473.808 1.381.286 3.02.65 3.644.81 5.246 1.341 8.51-.959 8.565-6.037.04-3.65-1.048-4.673-5.934-5.583a57.795 57.795 0 0 1-3.138-.677c-.69-.18-1.96-.448-2.823-.596-2.707-.467-4.73-.871-5.995-1.2a58.815 58.815 0 0 0-3.103-.674 79.674 79.674 0 0 1-3.682-.806c-.989-.248-2.109-.451-2.487-.451-.379 0-1.122-.128-1.652-.284-1.995-.589-5.388-1.29-6.233-1.287-1.421.004-2.416-1.248-2.419-3.042-.001-.827-.147-2.351-.325-3.387-.178-1.035-.451-3.223-.606-4.863-.642-6.778-.97-9.648-1.265-11.074-.171-.828-.312-2.006-.312-2.618 0-3.317-5.069-5.183-8.598-3.165m-35.009 40.44c-12.406 2.562-22.497 15.42-19.917 25.377 1.362 5.258 2.523 6.769 14.408 18.757 12.716 12.826 14.722 14.43 19.804 15.836 12.457 3.445 28.089-12.006 25.591-25.296-1.111-5.91-6.667-11.795-9.871-10.456-4.595 1.92-6.332 6.195-3.859 9.502 4.302 5.756 3.013 11.227-3.384 14.357-4.872 2.383-6.185 1.594-19.365-11.646-12.915-12.975-13.67-14.208-11.51-18.803 2.918-6.208 8.933-7.921 14.166-4.033 2.842 2.113 4.601 1.784 7.733-1.443 2.634-2.714 2.484-4.778-.566-7.815-3.71-3.693-8.595-5.294-13.23-4.337m-39.059 33.76c-2.665 1.39-5.222 5.184-4.753 7.051.174.694 39.496 40.448 41.736 42.195 3.025 2.359 9.902-3.706 8.376-7.388-.201-.487-9.718-10.23-21.147-21.651-23.142-23.124-21.404-21.673-24.212-20.207m-14.745 14.86c-1.29.343-28.261 27.34-28.567 28.595-.647 2.649 2.778 6.497 5.781 6.497h1.774l4.698-4.706c2.584-2.589 4.839-4.706 5.012-4.706.173 0 8.436 8.117 18.363 18.039l18.049 18.039h1.318c3.197 0 6.983-3.753 6.983-6.922v-1.358l-18.039-18.065c-9.921-9.935-18.039-18.203-18.039-18.373 0-.17 2.118-2.423 4.706-5.007l4.706-4.698v-1.501c0-3.381-3.755-6.629-6.745-5.834"/>
</svg>
